<?xml version='1.0' encoding='UTF-8'?>
<svg xmlns="http://www.w3.org/2000/svg" width="256" height="256" viewBox="0 0 256 256" version="1.2" baseProfile="tiny">
  <title>Israels Landscaping Logo</title>
  <rect x="0" y="0" width="256" height="256" fill="#FFFFFF"/>
  <rect x="0" y="0" width="256" height="256" fill="#FFFFFF"/>
  <rect width="256" height="256" fill="#FFFFFF"/>
  <path d="m 128.34287,102.9477 c -1.04472,-0.2643 -2.13106,-0.76644 -3.20966,-1.48356 l -0.92248,-0.61322 v -0.936436 c 0,-0.515095 0.0447,-0.914004 0.0984,-0.886589 2.58189,1.284545 3.09215,1.457215 5.09714,1.724785 2.37354,0.31682 4.86984,-0.0895 7.07716,-1.151744 0.68643,-0.330282 1.27284,-0.600633 1.30309,-0.600633 0.0299,0 0.0542,0.388976 0.0542,0.864338 v 0.864499 l -0.70162,0.52421 c -0.84274,0.62973 -1.74372,1.09219 -2.9097,1.49359 -0.7224,0.24868 -1.22007,0.30564 -3.00427,0.34383 -1.53377,0.0324 -2.34959,-0.007 -2.8848,-0.14307 z m 17.05167,-4.59344 c -0.0364,-0.03683 -0.0663,-0.988965 -0.0663,-2.116095 v -2.049339 h 0.40094 c 0.27544,0 0.40103,0.0657 0.40103,0.210177 0,0.174237 0.0593,0.162816 0.35196,-0.06674 0.41731,-0.328218 0.60438,-0.342221 1.10598,-0.08283 0.50462,0.260965 0.72946,0.852504 0.64764,1.704062 -0.0509,0.536901 -0.14706,0.761502 -0.42524,1.000837 -0.42119,0.362315 -0.95869,0.398382 -1.30227,0.08732 -0.23413,-0.211818 -0.24457,-0.189136 -0.24457,0.534613 0,0.415685 -0.0448,0.760807 -0.0999,0.766926 -0.0548,0.0055 -0.23542,0.02603 -0.40107,0.0445 -0.1653,0.01833 -0.33062,0.0028 -0.36739,-0.03332 z m 1.86356,-2.056731 c 0.2867,-0.409329 0.26051,-0.987023 -0.0584,-1.306789 -0.31751,-0.317427 -0.40237,-0.326601 -0.73993,-0.07983 -0.17824,0.130345 -0.25639,0.349269 -0.25639,0.718205 0,0.896746 0.62043,1.289626 1.05553,0.668412 z m 7.0777,1.977314 c -0.34608,-0.150677 -0.58794,-0.434017 -0.58794,-0.688807 0,-0.119266 0.79066,-0.04848 0.86864,0.07783 0.11534,0.185818 0.7814,0.167557 0.97569,-0.02664 0.0873,-0.08809 0.16041,-0.338098 0.16041,-0.555314 0,-0.374149 -0.0127,-0.38329 -0.24438,-0.173744 -0.38052,0.344432 -1.12055,0.283516 -1.50326,-0.12371 -0.2686,-0.285925 -0.32397,-0.482043 -0.32397,-1.146999 0,-0.737028 0.0352,-0.83375 0.43648,-1.192101 0.51689,-0.461857 0.80698,-0.4874 1.28297,-0.113009 0.29189,0.229618 0.35216,0.241043 0.35216,0.06674 0,-0.14443 0.1254,-0.210179 0.40103,-0.210179 h 0.40085 v 1.679435 c 0,0.947447 -0.0612,1.797038 -0.14435,1.949262 -0.16268,0.30385 -0.89388,0.650814 -1.35488,0.642923 -0.16785,-0.0027 -0.49154,-0.08627 -0.71945,-0.185625 z m 1.14944,-1.947583 c 0.14859,-0.148494 0.26736,-0.4455 0.26736,-0.668265 0,-0.370391 -0.38824,-0.935552 -0.64269,-0.935552 -0.34927,0 -0.62095,0.409335 -0.62095,0.935552 0,0.3984 0.0732,0.614861 0.25635,0.748087 0.33757,0.246795 0.42261,0.237621 0.73993,-0.07983 z m -51.85695,-1.136044 v -2.07159 h 0.40093 0.40097 v 2.07159 2.071617 h -0.40097 -0.40093 z m 1.91979,1.915304 c -0.15703,-0.07608 -0.35124,-0.282468 -0.43163,-0.458749 -0.13652,-0.300098 -0.12008,-0.320511 0.26161,-0.320511 0.22453,0 0.49792,0.09029 0.60836,0.200482 0.22701,0.227163 0.43084,0.249889 0.70198,0.07828 0.32882,-0.208259 0.049,-0.537214 -0.53599,-0.630822 -0.62921,-0.100604 -1.05405,-0.446961 -1.05405,-0.859583 0,-1.039761 1.59066,-1.426487 2.27968,-0.554263 l 0.28654,0.362579 -0.30059,0.04531 c -0.16549,0.02484 -0.43411,-0.02603 -0.59721,-0.113459 -0.34623,-0.185286 -0.75394,-0.136525 -0.83249,0.09967 -0.056,0.170391 0.30013,0.360863 0.92581,0.494065 0.81935,0.174477 1.05852,1.038389 0.42564,1.536343 -0.38431,0.302326 -1.23984,0.361728 -1.73766,0.120697 z m 2.62439,-1.380686 v -1.537008 h 0.4008 c 0.2675,0 0.40105,0.06673 0.40105,0.200487 0,0.15593 0.0585,0.141078 0.26745,-0.06675 0.26588,-0.265979 0.73246,-0.358214 0.8451,-0.16707 0.1238,0.210323 -0.17755,0.701665 -0.43047,0.701665 -0.51107,0 -0.68208,0.354005 -0.68208,1.412909 v 0.992838 h -0.40105 -0.4008 z m 2.40567,1.269681 c -0.61765,-0.617811 -0.17075,-1.429955 0.86879,-1.578486 0.54578,-0.07799 0.66826,-0.144161 0.66826,-0.361105 0,-0.302727 -0.53894,-0.44844 -0.77726,-0.21014 -0.16896,0.169 -0.89332,0.197054 -0.89332,0.03464 0,-0.224394 0.62743,-0.690094 1.04142,-0.772873 0.50017,-0.10004 1.18406,0.145597 1.36934,0.491811 0.0698,0.132099 0.12866,0.785432 0.12866,1.451836 v 1.211657 h -0.40097 c -0.28413,0 -0.40093,-0.06445 -0.40093,-0.221177 0,-0.205822 -0.0169,-0.205822 -0.24462,0 -0.33613,0.304329 -1.03238,0.280708 -1.35937,-0.046 z m 1.34544,-0.40564 c 0.14902,-0.07981 0.25855,-0.27891 0.25855,-0.470339 0,-0.294337 -0.0407,-0.322018 -0.36766,-0.244174 -0.79885,0.190816 -0.97743,0.772741 -0.25871,0.842307 0.059,0.0055 0.22562,-0.05168 0.36782,-0.127794 z m 2.14444,0.330768 c -0.76848,-0.64651 -0.67979,-2.092301 0.15954,-2.604052 1.00852,-0.614991 2.0977,0.01592 2.0977,1.215059 v 0.394666 h -1.00234 c -0.55139,0 -1.0024,0.03415 -1.0024,0.07575 0,0.04161 0.0604,0.191948 0.13824,0.334127 0.14814,0.276735 0.84965,0.364538 0.99765,0.124862 0.11027,-0.177705 0.86885,-0.172383 0.86885,0.0062 0,0.07688 -0.14772,0.287365 -0.32811,0.467793 -0.46494,0.46498 -1.36764,0.458356 -1.92913,-0.01425 z m 1.4554,-1.702683 c 0,-0.465056 -0.63146,-0.645963 -0.99294,-0.284498 -0.34311,0.343129 -0.24474,0.458242 0.39143,0.458242 0.40443,0 0.60151,-0.05694 0.60151,-0.173744 z m 1.43163,1.961909 c -0.0523,-0.05247 -0.0937,-0.987365 -0.0937,-2.077749 v -1.982494 h 0.47124 0.47135 l -0.0364,2.038183 -0.0365,2.038198 -0.33912,0.03963 c -0.1865,0.02173 -0.38198,-0.0027 -0.43446,-0.05575 z m 1.72717,-0.194041 c -0.1937,-0.152364 -0.35223,-0.362855 -0.35223,-0.467784 0,-0.261618 0.65235,-0.246677 0.94878,0.02173 0.14886,0.134605 0.33919,0.179409 0.51937,0.122239 0.47397,-0.150425 0.25292,-0.497467 -0.46171,-0.724855 -1.21818,-0.387584 -1.34901,-1.421234 -0.22278,-1.758665 0.61652,-0.184705 1.12118,-0.08966 1.49194,0.28103 0.36874,0.368784 0.32922,0.531194 -0.12929,0.531194 -0.2162,0 -0.43012,-0.06013 -0.4757,-0.133647 -0.11303,-0.183346 -0.69742,-0.168801 -0.81429,0.02021 -0.13337,0.215628 0.25649,0.46576 0.88175,0.565731 0.60372,0.09658 1.01097,0.567596 0.87124,1.007782 -0.24526,0.773028 -1.55879,1.084314 -2.25708,0.534943 z m 4.05827,-1.794612 v -2.07159 h 0.40091 0.40108 v 1.670642 1.670642 h 0.86874 0.86861 v 0.40096 0.400963 h -1.26959 -1.26975 z m 3.39476,1.969333 c -0.27625,-0.184398 -0.46099,-0.693683 -0.37548,-1.034546 0.10136,-0.405246 0.46362,-0.62612 1.19083,-0.726982 0.4194,-0.05817 0.53462,-0.131356 0.53462,-0.339616 0,-0.323092 -0.39055,-0.422516 -0.79949,-0.203584 -0.16314,0.08726 -0.43199,0.138351 -0.59723,0.113457 l -0.3006,-0.04532 0.28636,-0.362575 c 0.50375,-0.637675 1.80179,-0.614765 2.15113,0.03801 0.0697,0.132102 0.12854,0.785422 0.12854,1.451837 0,1.195516 -0.005,1.211658 -0.32619,1.211658 -0.17943,0 -0.36354,-0.06023 -0.40924,-0.134018 -0.0545,-0.08956 -0.16574,-0.08956 -0.333,0 -0.29147,0.155947 -0.93748,0.173763 -1.15025,0.03184 z m 1.15829,-0.570674 c 0.1421,-0.07616 0.25848,-0.276185 0.25848,-0.444647 0,-0.263541 -0.0545,-0.298156 -0.39666,-0.248066 -0.52317,0.07684 -0.76431,0.358963 -0.53898,0.63058 0.19643,0.236682 0.32842,0.24878 0.67716,0.0621 z m 1.72861,-0.864041 v -1.537008 h 0.40105 c 0.27539,0 0.40093,0.0657 0.40093,0.210177 0,0.174237 0.0593,0.162816 0.35208,-0.06674 0.45849,-0.360592 0.75143,-0.349614 1.21102,0.04539 0.35449,0.304924 0.37738,0.391874 0.42117,1.603834 l 0.0463,1.281412 h -0.41399 -0.41372 v -0.944346 c 0,-1.083441 -0.14993,-1.461393 -0.57942,-1.461393 -0.50859,0 -0.62345,0.251428 -0.62345,1.363259 v 1.042473 h -0.40108 -0.40094 z m 3.73201,1.146321 c -0.33419,-0.334206 -0.39052,-0.493578 -0.39013,-1.102625 6.8e-4,-1.28958 0.85147,-2.062537 1.67544,-1.522603 l 0.32882,0.215374 v -0.671346 c 0,-0.656829 0.008,-0.671329 0.40092,-0.671329 h 0.40102 v 2.07159 2.071617 h -0.32759 c -0.18009,0 -0.38012,-0.09417 -0.44442,-0.208925 -0.1061,-0.189461 -0.13299,-0.189461 -0.2902,0 -0.28342,0.341448 -0.91551,0.256596 -1.35386,-0.181753 z m 1.4447,-0.44464 c 0.39138,-0.500065 0.23035,-1.490645 -0.26785,-1.648769 -0.60229,-0.191166 -1.0523,1.109165 -0.5556,1.605802 0.25245,0.252376 0.64367,0.272788 0.82345,0.04298 z m 1.99178,0.558313 c -0.19371,-0.152364 -0.35236,-0.362855 -0.35236,-0.467784 0,-0.261618 0.65244,-0.246677 0.94907,0.02173 0.14869,0.134605 0.33918,0.179409 0.51934,0.122239 0.47377,-0.150425 0.25271,-0.497467 -0.46179,-0.724855 -0.43563,-0.138607 -0.72731,-0.326341 -0.84756,-0.545476 -0.56439,-1.029009 1.22962,-1.819133 2.1166,-0.932159 0.36861,0.368784 0.32924,0.531194 -0.12912,0.531194 -0.21617,0 -0.4303,-0.06013 -0.47573,-0.133647 -0.11361,-0.183346 -0.69759,-0.168801 -0.81449,0.02021 -0.13218,0.213841 0.25507,0.465515 0.86668,0.563324 0.54719,0.08739 0.72781,0.236029 0.87632,0.720465 0.0697,0.230201 -0.002,0.39648 -0.30746,0.701683 -0.50349,0.503552 -1.38469,0.559428 -1.9395,0.122984 z m 3.30545,0.04017 c -0.41828,-0.338826 -0.5836,-0.739707 -0.5836,-1.41476 0,-1.05972 0.95992,-1.794202 1.88511,-1.442448 0.77815,0.295841 1.10551,1.089289 0.44963,1.089289 -0.18623,0 -0.37214,-0.08781 -0.41337,-0.195392 -0.1226,-0.319542 -0.57677,-0.388075 -0.86178,-0.130076 -0.28462,0.257573 -0.34604,0.979919 -0.11934,1.403468 0.18176,0.339582 0.74753,0.334415 0.9619,-0.0085 0.0919,-0.147001 0.3027,-0.267284 0.46885,-0.267284 0.41242,0 0.39904,0.449711 -0.0262,0.874803 -0.40227,0.402246 -1.31879,0.449704 -1.7613,0.09131 z m 2.8451,-0.0073 c -0.29529,-0.326472 -0.281,-0.996506 0.0272,-1.275656 0.13672,-0.123726 0.51208,-0.269952 0.83413,-0.324922 0.39715,-0.06767 0.5999,-0.174199 0.63003,-0.33077 0.0567,-0.298492 -0.34074,-0.450118 -0.65939,-0.251072 -0.36089,0.22537 -0.91969,0.196397 -0.91969,-0.04758 0,-0.357205 0.80787,-0.75459 1.38949,-0.683404 0.89762,0.109856 1.08313,0.428001 1.08313,1.858209 v 1.232901 l -0.36768,0.04221 c -0.27503,0.03164 -0.36752,-0.01578 -0.36752,-0.187779 0,-0.214422 -0.0167,-0.215028 -0.24437,-0.009 -0.33038,0.29893 -1.12594,0.285784 -1.40559,-0.0232 z m 1.356,-0.450629 c 0.0867,-0.08803 0.16035,-0.288283 0.16035,-0.444647 0,-0.241419 -0.0603,-0.275139 -0.41151,-0.223845 -0.43213,0.06345 -0.60498,0.291678 -0.47565,0.628402 0.0917,0.24057 0.50362,0.263257 0.72681,0.04011 z m 5.10531,-0.826863 v -1.521805 l 0.40111,-0.05884 0.40092,-0.05884 v 1.580674 1.580666 h -0.40092 -0.40111 z m 1.55939,1.432746 c -0.10431,-0.104343 -0.1222,-2.907241 -0.0189,-3.010323 0.1407,-0.140674 0.73195,0.06216 0.73195,0.251177 0,0.149513 0.0796,0.130413 0.35235,-0.08234 0.43874,-0.345297 0.86129,-0.352506 1.27006,-0.02173 0.28723,0.232356 0.31974,0.376509 0.36157,1.603825 l 0.0457,1.348524 h -0.41348 -0.4135 l -0.002,-1.035803 c -0.002,-1.214054 -0.0901,-1.406978 -0.61388,-1.347206 l -0.38635,0.04404 -0.0381,1.169454 -0.0381,1.169454 h -0.37348 c -0.20541,0 -0.4135,-0.04016 -0.46263,-0.08898 z m -1.51147,-3.721692 c -0.0877,-0.23083 0.16973,-0.599742 0.42009,-0.599742 0.25585,0 0.48256,0.340558 0.38892,0.584494 -0.10523,0.274046 -0.70542,0.285353 -0.80901,0.01531 z m -29.27131,-1.936549 c -1.63221,-0.830231 -1.9623,-3.167647 -0.62619,-4.436717 0.83619,-0.794215 1.88285,-0.968661 2.8494,-0.47487 1.14322,0.584044 1.68256,1.718687 1.44542,3.040585 -0.12362,0.68915 -0.38486,1.087171 -1.08586,1.654531 -0.66725,0.539984 -1.7656,0.632048 -2.58277,0.216471 z m 19.76144,-0.01702 c -1.34975,-0.668183 -1.85988,-2.277113 -1.16411,-3.673095 1.25668,-2.521787 4.88883,-1.608246 4.87633,1.226449 -0.009,2.025277 -1.96243,3.31274 -3.71222,2.446646 z M 123.94342,90.11252 v -0.467823 h 6.54896 6.54886 v 0.467782 0.467769 h -6.54886 -6.54896 z m 3.71661,-2.335325 c -0.0612,-0.863368 -0.34786,-1.311069 -1.07836,-1.691058 -0.26628,-0.138514 -6.26931,-1.252871 -6.74928,-1.252871 -0.03,0 -0.0127,-0.449161 0.0381,-0.998168 l 0.0931,-0.998166 -4.95391,-5.044945 c -2.72471,-2.774735 -4.94188,-5.056083 -4.92707,-5.069705 0.0235,-0.02223 2.5858,-0.287503 3.4509,-0.357258 0.3026,-0.02436 0.76794,0.447031 3.4415,3.487423 2.4299,2.763092 3.09161,3.444905 3.09161,3.185166 0,-0.748927 0.0703,-0.769549 1.20961,-0.349818 1.95235,0.719827 2.59303,1.151642 3.47019,2.339047 0.47608,0.644398 0.56968,0.704971 1.31988,0.852517 0.59534,0.117136 0.98644,0.300532 1.49003,0.698619 0.95447,0.754385 1.40011,0.907906 3.10912,1.070779 1.80207,0.171765 2.93235,0.09506 4.49515,-0.305354 1.00429,-0.257238 1.25123,-0.278049 1.70071,-0.143355 0.77923,0.23348 1.65182,0.861935 2.29584,1.653607 l 0.57091,0.701905 -0.6268,0.182758 c -0.8199,0.239068 -1.93897,1.335172 -2.21799,2.172587 l -0.19918,0.597789 -4.48351,0.03521 -4.48345,0.03522 z m -7.6084,-6.971711 c 0.0124,-0.280781 -0.61164,-1.054309 -3.07399,-3.80907 -1.69943,-1.901214 -3.18856,-3.561004 -3.30932,-3.688446 -0.1956,-0.206274 -0.31126,-0.214709 -1.0535,-0.0767 -0.45856,0.08525 -0.83369,0.211122 -0.83369,0.279622 0,0.06851 1.81933,1.989666 4.04293,4.26923 3.89507,3.993166 4.04605,4.130618 4.12738,3.761156 0.0457,-0.210924 0.0911,-0.542033 0.0997,-0.735831 z m 9.52759,1.830715 c -1.07849,-0.348185 -1.32782,-0.807909 -0.80147,-1.477143 0.25837,-0.328462 0.30762,-0.345269 0.44819,-0.153104 0.34921,0.477812 1.10631,0.641209 2.95295,0.637437 2.18199,-0.0041 2.6764,-0.08819 2.94577,-0.499244 0.16636,-0.253936 0.25579,-0.288834 0.46014,-0.179479 0.13956,0.07469 0.34814,0.279958 0.46367,0.456213 0.26583,0.405786 0.0926,0.773717 -0.51468,1.102994 -0.58582,0.31684 -5.05952,0.401239 -5.95457,0.11238 z"/>
</svg>
