<?xml version='1.0' encoding='UTF-8'?>
<svg xmlns="http://www.w3.org/2000/svg" version="1.2" baseProfile="tiny" width="512" height="512" viewBox="0 0 512 512"><path d="M 205,293 L 205,305 L 207,307 L 208,307 L 210,309 L 211,309 L 213,311 L 214,311 L 215,312 L 216,312 L 218,314 L 219,314 L 220,315 L 221,315 L 222,316 L 223,316 L 224,317 L 226,317 L 227,318 L 229,318 L 230,319 L 231,319 L 232,320 L 236,320 L 237,321 L 242,321 L 243,322 L 254,322 L 255,323 L 257,323 L 258,322 L 268,322 L 269,321 L 274,321 L 275,320 L 279,320 L 280,319 L 281,319 L 282,318 L 284,318 L 285,317 L 287,317 L 288,316 L 289,316 L 290,315 L 291,315 L 292,314 L 293,314 L 294,313 L 295,313 L 297,311 L 298,311 L 299,310 L 300,310 L 303,307 L 304,307 L 306,305 L 306,293 L 303,293 L 302,294 L 301,294 L 300,295 L 299,295 L 298,296 L 297,296 L 296,297 L 295,297 L 294,298 L 293,298 L 292,299 L 290,299 L 289,300 L 287,300 L 286,301 L 284,301 L 283,302 L 281,302 L 280,303 L 276,303 L 275,304 L 271,304 L 270,305 L 241,305 L 240,304 L 237,304 L 236,303 L 231,303 L 230,302 L 228,302 L 227,301 L 225,301 L 224,300 L 222,300 L 221,299 L 219,299 L 218,298 L 217,298 L 216,297 L 215,297 L 214,296 L 213,296 L 212,295 L 211,295 L 210,294 L 209,294 L 208,293 Z" fill="black" /><path d="M 399,252 L 399,274 L 400,274 L 401,275 L 403,275 L 404,274 L 405,274 L 405,252 Z" fill="black" /><path d="M 91,252 L 91,274 L 92,275 L 94,275 L 95,274 L 96,274 L 96,262 L 97,261 L 97,259 L 98,258 L 99,258 L 100,257 L 104,257 L 104,255 L 105,254 L 105,252 L 99,252 L 98,253 L 97,253 L 96,252 Z" fill="black" /><path d="M 423,251 L 422,252 L 420,252 L 419,253 L 418,253 L 417,252 L 412,252 L 411,253 L 411,273 L 413,275 L 415,275 L 416,274 L 417,274 L 417,262 L 418,261 L 418,259 L 420,257 L 421,257 L 422,256 L 423,256 L 424,257 L 425,257 L 426,258 L 426,274 L 427,274 L 428,275 L 430,275 L 431,274 L 432,274 L 432,256 L 431,255 L 431,254 L 429,252 L 427,252 L 426,251 Z" fill="black" /><path d="M 384,251 L 383,252 L 380,252 L 378,254 L 377,253 L 377,252 L 372,252 L 372,283 L 373,284 L 377,284 L 377,274 L 378,273 L 379,273 L 380,274 L 381,274 L 382,275 L 387,275 L 388,274 L 389,274 L 392,271 L 392,270 L 393,269 L 393,268 L 394,267 L 394,259 L 393,258 L 393,257 L 392,256 L 392,255 L 389,252 L 387,252 L 386,251 Z" fill="black" /><path d="M 355,251 L 354,252 L 351,252 L 350,253 L 349,253 L 347,255 L 347,256 L 348,257 L 348,258 L 349,259 L 350,259 L 352,257 L 354,257 L 355,256 L 358,256 L 359,257 L 359,259 L 357,261 L 353,261 L 352,262 L 350,262 L 347,265 L 347,267 L 346,268 L 347,269 L 347,272 L 349,274 L 350,274 L 351,275 L 356,275 L 357,274 L 358,274 L 360,272 L 362,274 L 363,274 L 364,275 L 366,275 L 367,274 L 368,274 L 368,270 L 367,270 L 365,268 L 365,255 L 362,252 L 359,252 L 358,251 Z" fill="black" /><path d="M 333,251 L 332,252 L 329,252 L 324,257 L 324,259 L 323,260 L 323,266 L 324,267 L 324,269 L 326,271 L 326,272 L 327,273 L 328,273 L 329,274 L 330,274 L 331,275 L 338,275 L 339,274 L 340,274 L 343,271 L 343,270 L 344,269 L 342,267 L 341,267 L 340,266 L 336,270 L 333,270 L 329,266 L 329,261 L 330,260 L 330,259 L 332,257 L 333,257 L 334,256 L 335,256 L 336,257 L 337,257 L 339,259 L 341,259 L 343,257 L 343,255 L 340,252 L 337,252 L 336,251 Z" fill="black" /><path d="M 310,251 L 309,252 L 306,252 L 305,253 L 304,253 L 304,254 L 303,255 L 303,256 L 302,257 L 302,259 L 303,260 L 303,262 L 305,264 L 307,264 L 308,265 L 311,265 L 312,266 L 313,266 L 314,267 L 314,269 L 313,270 L 308,270 L 306,268 L 304,268 L 301,271 L 303,273 L 304,273 L 305,274 L 306,274 L 307,275 L 314,275 L 315,274 L 316,274 L 317,273 L 318,273 L 319,272 L 319,271 L 320,270 L 320,266 L 319,265 L 319,264 L 317,262 L 316,262 L 315,261 L 312,261 L 311,260 L 309,260 L 308,259 L 308,257 L 309,256 L 313,256 L 314,257 L 315,257 L 316,258 L 319,255 L 319,254 L 318,253 L 317,253 L 316,252 L 314,252 L 313,251 Z" fill="black" /><path d="M 261,251 L 260,252 L 258,252 L 256,254 L 255,253 L 255,252 L 249,252 L 249,274 L 250,274 L 251,275 L 253,275 L 254,274 L 255,274 L 255,260 L 259,256 L 261,256 L 264,259 L 264,274 L 265,274 L 266,275 L 268,275 L 269,274 L 270,274 L 270,258 L 269,257 L 269,255 L 268,254 L 268,253 L 267,253 L 266,252 L 264,252 L 263,251 Z" fill="black" /><path d="M 233,251 L 232,252 L 229,252 L 228,253 L 227,253 L 225,255 L 225,257 L 227,259 L 228,258 L 229,258 L 230,257 L 231,257 L 232,256 L 235,256 L 237,258 L 237,259 L 236,260 L 235,260 L 234,261 L 231,261 L 230,262 L 228,262 L 227,263 L 226,263 L 225,264 L 225,265 L 224,266 L 224,271 L 225,272 L 225,273 L 226,274 L 228,274 L 229,275 L 234,275 L 236,273 L 238,273 L 239,274 L 240,274 L 241,275 L 244,275 L 246,273 L 246,272 L 245,271 L 245,270 L 244,270 L 243,269 L 243,257 L 242,256 L 242,255 L 241,254 L 241,253 L 240,253 L 239,252 L 237,252 L 236,251 Z" fill="black" /><path d="M 176,251 L 175,252 L 172,252 L 169,255 L 169,257 L 168,258 L 168,259 L 169,260 L 169,261 L 170,262 L 170,263 L 171,263 L 172,264 L 173,264 L 174,265 L 177,265 L 178,266 L 179,266 L 181,268 L 179,270 L 175,270 L 174,269 L 173,269 L 171,267 L 168,270 L 168,272 L 169,273 L 170,273 L 171,274 L 173,274 L 174,275 L 180,275 L 181,274 L 183,274 L 185,272 L 185,271 L 186,270 L 186,265 L 185,264 L 185,263 L 184,263 L 183,262 L 182,262 L 181,261 L 178,261 L 177,260 L 176,260 L 174,258 L 176,256 L 179,256 L 180,257 L 181,257 L 182,258 L 183,258 L 185,256 L 185,254 L 183,252 L 180,252 L 179,251 Z" fill="black" /><path d="M 140,251 L 139,252 L 137,252 L 136,253 L 135,253 L 133,255 L 133,256 L 132,257 L 132,258 L 131,259 L 131,268 L 132,269 L 132,270 L 136,274 L 138,274 L 139,275 L 146,275 L 147,274 L 148,274 L 151,271 L 151,269 L 150,268 L 149,268 L 148,267 L 146,269 L 145,269 L 144,270 L 140,270 L 137,267 L 137,266 L 139,264 L 152,264 L 152,258 L 151,257 L 151,256 L 150,255 L 150,254 L 149,253 L 148,253 L 147,252 L 145,252 L 144,251 Z" fill="black" /><path d="M 115,251 L 114,252 L 111,252 L 110,253 L 109,253 L 107,255 L 107,256 L 109,258 L 109,259 L 110,259 L 112,257 L 114,257 L 115,256 L 118,256 L 120,258 L 117,261 L 113,261 L 112,262 L 110,262 L 107,265 L 107,267 L 106,268 L 107,269 L 107,272 L 109,274 L 110,274 L 111,275 L 116,275 L 117,274 L 118,274 L 120,272 L 122,274 L 123,274 L 124,275 L 126,275 L 127,274 L 128,274 L 128,270 L 127,270 L 125,268 L 125,255 L 122,252 L 119,252 L 118,251 Z" fill="black" /><path d="M 76,251 L 75,252 L 72,252 L 69,255 L 69,256 L 68,257 L 68,260 L 69,261 L 69,262 L 71,264 L 73,264 L 74,265 L 77,265 L 78,266 L 79,266 L 80,267 L 80,269 L 79,270 L 74,270 L 71,267 L 68,270 L 68,272 L 69,273 L 70,273 L 71,274 L 72,274 L 73,275 L 80,275 L 81,274 L 83,274 L 85,272 L 85,270 L 86,269 L 86,266 L 85,265 L 85,264 L 83,262 L 82,262 L 81,261 L 78,261 L 77,260 L 75,260 L 74,259 L 74,257 L 75,256 L 79,256 L 80,257 L 81,257 L 82,258 L 85,255 L 85,254 L 84,253 L 83,253 L 82,252 L 80,252 L 79,251 Z" fill="black" /><path d="M 453,249 L 452,250 L 452,251 L 451,252 L 449,252 L 448,251 L 445,251 L 444,252 L 442,252 L 441,253 L 440,253 L 439,254 L 439,255 L 438,256 L 438,262 L 441,265 L 438,268 L 438,271 L 439,272 L 439,273 L 436,276 L 436,280 L 437,281 L 437,282 L 438,282 L 439,283 L 440,283 L 441,284 L 452,284 L 453,283 L 454,283 L 455,282 L 456,282 L 456,281 L 457,280 L 457,279 L 458,278 L 458,275 L 457,274 L 457,273 L 455,271 L 454,271 L 453,270 L 445,270 L 443,268 L 444,267 L 450,267 L 451,266 L 452,266 L 455,263 L 455,262 L 456,261 L 456,258 L 455,257 L 455,256 L 454,255 L 456,253 L 456,252 L 457,251 L 457,250 L 456,249 Z" fill="black" /><path d="M 202,244 L 202,245 L 201,246 L 201,273 L 203,275 L 220,275 L 221,274 L 221,270 L 220,269 L 209,269 L 208,268 L 208,245 L 207,244 Z" fill="black" /><path d="M 57,244 L 56,245 L 56,274 L 57,274 L 58,275 L 60,275 L 61,274 L 62,274 L 62,244 Z" fill="black" /><path d="M 291,243 L 291,252 L 290,253 L 289,253 L 288,252 L 286,252 L 285,251 L 283,251 L 282,252 L 280,252 L 279,253 L 278,253 L 277,254 L 277,255 L 276,256 L 276,257 L 275,258 L 275,268 L 276,269 L 276,271 L 279,274 L 280,274 L 281,275 L 286,275 L 287,274 L 288,274 L 289,273 L 290,273 L 292,275 L 295,275 L 296,274 L 297,274 L 297,243 Z" fill="black" /><path d="M 157,243 L 157,272 L 159,274 L 160,274 L 161,275 L 165,275 L 166,274 L 166,271 L 165,270 L 164,270 L 163,269 L 163,244 L 162,243 Z" fill="black" /><path d="M 401,242 L 399,244 L 399,248 L 400,249 L 404,249 L 405,248 L 405,244 L 403,242 Z" fill="black" /><path d="M 370,225 L 371,226 L 371,228 L 372,229 L 372,231 L 373,232 L 373,234 L 374,235 L 375,235 L 375,231 L 373,229 L 373,228 Z" fill="black" /><path d="M 377,222 L 377,223 L 378,224 L 378,227 L 380,229 L 380,234 L 381,235 L 383,235 L 383,233 L 382,232 L 382,231 L 381,230 L 381,227 L 379,225 L 379,224 Z" fill="black" /><path d="M 396,221 L 396,223 L 397,224 L 397,227 L 398,228 L 398,232 L 399,233 L 399,235 L 401,235 L 401,231 L 400,230 L 400,228 L 399,227 L 399,226 L 398,225 L 398,224 L 396,222 Z" fill="black" /><path d="M 386,219 L 386,221 L 387,222 L 387,225 L 388,226 L 388,229 L 389,230 L 389,235 L 391,235 L 392,234 L 391,233 L 391,230 L 390,229 L 390,226 L 389,225 L 389,223 L 387,221 L 387,219 Z" fill="black" /><path d="M 202,219 L 202,226 L 203,227 L 301,227 L 302,226 L 302,219 Z" fill="black" /><path d="M 403,218 L 403,220 L 404,221 L 404,224 L 405,225 L 405,226 L 406,227 L 406,234 L 407,235 L 409,235 L 409,231 L 408,230 L 408,229 L 407,228 L 407,225 L 406,224 L 406,223 L 405,222 L 405,221 L 404,220 L 404,218 Z" fill="black" /><path d="M 385,216 L 385,217 Z" fill="black" /><path d="M 322,196 L 321,197 L 320,197 L 319,198 L 318,198 L 317,199 L 316,199 L 312,203 L 312,204 L 311,205 L 311,206 L 310,207 L 310,208 L 309,209 L 309,214 L 308,215 L 309,216 L 309,222 L 310,223 L 310,224 L 311,225 L 311,226 L 317,232 L 318,232 L 320,234 L 322,234 L 323,235 L 327,235 L 328,236 L 329,236 L 330,235 L 334,235 L 335,234 L 337,234 L 339,232 L 340,232 L 346,226 L 346,225 L 347,224 L 347,222 L 348,221 L 348,219 L 349,218 L 349,213 L 348,212 L 348,210 L 347,209 L 347,207 L 346,206 L 346,205 L 344,203 L 344,202 L 341,199 L 340,199 L 339,198 L 338,198 L 337,197 L 336,197 L 335,196 Z" fill="black" /><path d="M 171,196 L 170,197 L 169,197 L 168,198 L 167,198 L 166,199 L 165,199 L 161,203 L 161,204 L 159,206 L 159,208 L 158,209 L 158,213 L 157,214 L 157,216 L 158,217 L 158,222 L 159,223 L 159,224 L 160,225 L 160,226 L 162,228 L 162,229 L 163,229 L 164,230 L 164,231 L 165,231 L 166,232 L 167,232 L 169,234 L 171,234 L 172,235 L 176,235 L 177,236 L 178,236 L 179,235 L 182,235 L 183,234 L 186,234 L 188,232 L 189,232 L 194,227 L 194,226 L 196,224 L 196,222 L 197,221 L 197,209 L 196,208 L 196,207 L 195,206 L 195,205 L 193,203 L 193,202 L 191,200 L 190,200 L 188,198 L 187,198 L 186,197 L 185,197 L 184,196 Z" fill="black" /><path d="M 242,155 L 241,156 L 240,156 L 238,158 L 238,159 L 237,160 L 237,164 L 241,168 L 245,168 L 246,169 L 248,169 L 249,170 L 284,170 L 285,169 L 288,169 L 289,168 L 291,168 L 292,167 L 293,167 L 295,165 L 295,164 L 296,163 L 296,161 L 295,160 L 295,159 L 292,156 L 291,156 L 290,155 L 289,156 L 288,156 L 288,157 L 286,159 L 285,159 L 284,160 L 282,160 L 281,161 L 251,161 L 250,160 L 248,160 L 247,159 L 245,159 L 243,157 L 243,156 Z" fill="black" /><path d="M 116,93 L 115,94 L 109,94 L 108,95 L 97,95 L 96,96 L 96,97 L 115,116 L 116,116 L 146,146 L 147,146 L 148,147 L 148,148 L 149,149 L 150,149 L 171,170 L 171,175 L 170,176 L 170,184 L 171,185 L 177,185 L 178,186 L 184,186 L 185,187 L 188,187 L 189,188 L 196,188 L 197,189 L 202,189 L 203,190 L 207,190 L 208,191 L 215,191 L 216,192 L 219,192 L 220,193 L 221,193 L 222,194 L 223,194 L 225,196 L 226,196 L 228,198 L 228,199 L 229,200 L 229,201 L 230,202 L 230,204 L 231,205 L 231,209 L 230,210 L 230,211 L 231,212 L 299,212 L 300,211 L 300,209 L 301,208 L 301,206 L 303,204 L 303,203 L 306,200 L 306,199 L 309,196 L 310,196 L 312,194 L 313,194 L 314,193 L 315,193 L 316,192 L 317,192 L 318,191 L 322,191 L 322,188 L 315,181 L 315,180 L 314,180 L 310,176 L 308,176 L 306,174 L 305,174 L 304,173 L 301,173 L 300,172 L 293,172 L 292,173 L 287,173 L 286,174 L 284,174 L 283,175 L 280,175 L 279,176 L 252,176 L 251,175 L 245,175 L 244,174 L 240,174 L 239,173 L 236,173 L 233,170 L 232,170 L 228,166 L 227,166 L 226,165 L 225,165 L 224,164 L 221,164 L 220,163 L 219,163 L 218,162 L 213,162 L 210,159 L 210,158 L 208,156 L 208,155 L 202,149 L 201,149 L 199,147 L 198,147 L 196,145 L 195,145 L 194,144 L 193,144 L 192,143 L 191,143 L 190,142 L 189,142 L 188,141 L 186,141 L 185,140 L 183,140 L 182,139 L 180,139 L 179,138 L 177,138 L 176,137 L 173,137 L 173,142 L 172,143 L 171,143 L 168,140 L 168,139 L 157,128 L 157,127 L 145,115 L 145,114 L 134,103 L 134,102 L 125,93 Z" fill="black" /></svg>