<svg xmlns="http://www.w3.org/2000/svg" xmlns:xlink="http://www.w3.org/1999/xlink" width="500" zoomAndPan="magnify" viewBox="0 0 375 374.999991" height="500" preserveAspectRatio="xMidYMid meet" version="1.0"><defs><g/><clipPath id="ad8ac63238"><path d="M 213.167969 84.707031 L 246.292969 84.707031 L 246.292969 117.726562 L 213.167969 117.726562 Z M 213.167969 84.707031 " clip-rule="nonzero"/></clipPath><clipPath id="e3b95b6649"><path d="M 89.789062 84.707031 L 122.914062 84.707031 L 122.914062 117.726562 L 89.789062 117.726562 Z M 89.789062 84.707031 " clip-rule="nonzero"/></clipPath><clipPath id="7ebecd2b7d"><path d="M 39.085938 0.777344 L 226 0.777344 L 226 99 L 39.085938 99 Z M 39.085938 0.777344 " clip-rule="nonzero"/></clipPath><clipPath id="78e9e0a7a1"><path d="M 309 131 L 328.761719 131 L 328.761719 159 L 309 159 Z M 309 131 " clip-rule="nonzero"/></clipPath><clipPath id="a9de365d6b"><path d="M 107 157 L 244 157 L 244 193.601562 L 107 193.601562 Z M 107 157 " clip-rule="nonzero"/></clipPath><clipPath id="d0f699903d"><rect x="0" width="137" y="0" height="37"/></clipPath><clipPath id="ea57d5df35"><rect x="0" width="329" y="0" height="194"/></clipPath></defs><g transform="matrix(1, 0, 0, 1, 19, 74)"><g clip-path="url(#ea57d5df35)"><g clip-path="url(#ad8ac63238)"><path fill="#100f0d" d="M 246.238281 101.238281 C 246.238281 110.328125 238.867188 117.699219 229.777344 117.699219 C 220.6875 117.699219 213.320312 110.328125 213.320312 101.238281 C 213.320312 92.148438 220.6875 84.777344 229.777344 84.777344 C 238.867188 84.777344 246.238281 92.148438 246.238281 101.238281 " fill-opacity="1" fill-rule="nonzero"/></g><g clip-path="url(#e3b95b6649)"><path fill="#100f0d" d="M 122.789062 101.238281 C 122.789062 110.328125 115.421875 117.699219 106.332031 117.699219 C 97.238281 117.699219 89.871094 110.328125 89.871094 101.238281 C 89.871094 92.148438 97.238281 84.777344 106.332031 84.777344 C 115.421875 84.777344 122.789062 92.148438 122.789062 101.238281 " fill-opacity="1" fill-rule="nonzero"/></g><path fill="#100f0d" d="M 111.316406 101.238281 C 111.316406 103.992188 109.085938 106.222656 106.332031 106.222656 C 103.578125 106.222656 101.34375 103.992188 101.34375 101.238281 C 101.34375 98.484375 103.578125 96.25 106.332031 96.25 C 109.085938 96.25 111.316406 98.484375 111.316406 101.238281 " fill-opacity="1" fill-rule="nonzero"/><path fill="#100f0d" d="M 234.761719 101.238281 C 234.761719 103.992188 232.53125 106.222656 229.777344 106.222656 C 227.023438 106.222656 224.792969 103.992188 224.792969 101.238281 C 224.792969 98.484375 227.023438 96.25 229.777344 96.25 C 232.53125 96.25 234.761719 98.484375 234.761719 101.238281 " fill-opacity="1" fill-rule="nonzero"/><path fill="#100f0d" d="M 208.175781 110.496094 L 126.390625 110.496094 L 126.390625 104.324219 L 208.175781 104.324219 L 208.175781 110.496094 " fill-opacity="1" fill-rule="nonzero"/><path fill="#100f0d" d="M 159.371094 51.476562 C 158.304688 59.054688 186.414062 56.855469 190.710938 56.355469 C 192.144531 56.1875 193.601562 55.957031 194.867188 55.273438 C 196.136719 54.589844 197.199219 53.371094 197.335938 51.9375 C 199.464844 52.417969 202.484375 54.160156 203.011719 56.5 C 204.867188 64.746094 184.9375 64.15625 180.632812 64.1875 C 174.035156 64.238281 167.355469 64.28125 160.960938 62.660156 C 159.253906 62.226562 157.511719 61.636719 156.265625 60.394531 C 152.875 57.015625 156.484375 53.417969 159.371094 51.476562 " fill-opacity="1" fill-rule="nonzero"/><g clip-path="url(#7ebecd2b7d)"><path fill="#100f0d" d="M 49.585938 7.722656 L 60.773438 5.40625 L 101.980469 49.5 C 101.816406 52.542969 101.636719 55.832031 101.464844 59.019531 Z M 221.582031 75.914062 C 219.917969 74.074219 218.324219 72.273438 216.367188 70.726562 C 212.359375 67.570312 207.203125 65.042969 201.972656 65.671875 C 197.414062 66.214844 193.195312 68.226562 188.554688 68.761719 C 183.835938 69.304688 179.070312 69.382812 174.328125 69.113281 C 168.203125 68.765625 157.523438 68.648438 152.335938 65.015625 C 150.867188 63.988281 149.636719 62.660156 148.230469 61.550781 C 145.097656 59.070312 141.757812 58.378906 137.933594 57.789062 C 136.476562 57.5625 135.609375 57.394531 134.988281 57.117188 C 133.550781 56.472656 132.789062 54.660156 131.921875 53.457031 C 130.710938 51.78125 129.347656 50.21875 127.863281 48.78125 C 124.617188 45.640625 120.777344 43.109375 116.605469 41.375 C 115.378906 40.863281 102.671875 36.628906 102.679688 36.503906 C 102.679688 36.515625 102.535156 39.226562 102.320312 43.222656 L 63.476562 0.777344 L 39.167969 3.089844 L 101.214844 63.730469 C 100.847656 70.492188 100.558594 75.851562 100.558594 75.851562 C 112.441406 77.804688 124.292969 79.867188 136.210938 81.488281 C 140.117188 82.019531 144.160156 83.164062 146.898438 86 C 150.046875 89.257812 150.683594 94.0625 149.53125 98.304688 C 159.078125 98.070312 168.710938 98.28125 178.28125 98.28125 C 180.253906 98.28125 205.808594 99.320312 206.066406 98.257812 C 210.125 81.691406 225.542969 80.320312 225.542969 80.320312 C 225.058594 80.363281 221.996094 76.367188 221.582031 75.914062 " fill-opacity="1" fill-rule="nonzero"/></g><g fill="#000000" fill-opacity="1"><g transform="translate(0.841182, 150.529315)"><g><path d="M 3.015625 0 L 3.015625 -23.953125 L 8.09375 -23.953125 L 8.09375 0 Z M 3.015625 0 "/></g></g></g><g fill="#000000" fill-opacity="1"><g transform="translate(11.945126, 150.529315)"><g><path d="M 15.390625 -5.4375 C 15.390625 -4.195312 15.097656 -3.144531 14.515625 -2.28125 C 13.929688 -1.425781 13.0625 -0.773438 11.90625 -0.328125 C 10.75 0.109375 9.304688 0.328125 7.578125 0.328125 C 6.304688 0.328125 5.210938 0.242188 4.296875 0.078125 C 3.390625 -0.078125 2.472656 -0.347656 1.546875 -0.734375 L 1.546875 -4.859375 C 2.535156 -4.410156 3.597656 -4.039062 4.734375 -3.75 C 5.878906 -3.46875 6.882812 -3.328125 7.75 -3.328125 C 8.71875 -3.328125 9.410156 -3.46875 9.828125 -3.75 C 10.253906 -4.039062 10.46875 -4.421875 10.46875 -4.890625 C 10.46875 -5.203125 10.378906 -5.476562 10.203125 -5.71875 C 10.035156 -5.96875 9.671875 -6.25 9.109375 -6.5625 C 8.554688 -6.875 7.6875 -7.28125 6.5 -7.78125 C 5.351562 -8.257812 4.410156 -8.742188 3.671875 -9.234375 C 2.941406 -9.722656 2.394531 -10.300781 2.03125 -10.96875 C 1.675781 -11.644531 1.5 -12.503906 1.5 -13.546875 C 1.5 -15.234375 2.15625 -16.503906 3.46875 -17.359375 C 4.789062 -18.222656 6.554688 -18.65625 8.765625 -18.65625 C 9.898438 -18.65625 10.984375 -18.539062 12.015625 -18.3125 C 13.046875 -18.082031 14.109375 -17.71875 15.203125 -17.21875 L 13.6875 -13.609375 C 12.78125 -14.003906 11.925781 -14.328125 11.125 -14.578125 C 10.320312 -14.828125 9.507812 -14.953125 8.6875 -14.953125 C 7.945312 -14.953125 7.390625 -14.851562 7.015625 -14.65625 C 6.648438 -14.457031 6.46875 -14.160156 6.46875 -13.765625 C 6.46875 -13.460938 6.5625 -13.195312 6.75 -12.96875 C 6.945312 -12.738281 7.320312 -12.484375 7.875 -12.203125 C 8.425781 -11.929688 9.234375 -11.578125 10.296875 -11.140625 C 11.335938 -10.710938 12.238281 -10.265625 13 -9.796875 C 13.769531 -9.335938 14.359375 -8.765625 14.765625 -8.078125 C 15.179688 -7.398438 15.390625 -6.519531 15.390625 -5.4375 Z M 15.390625 -5.4375 "/></g></g></g><g fill="#000000" fill-opacity="1"><g transform="translate(28.617418, 150.529315)"><g><path d="M 12.84375 -18.65625 C 13.09375 -18.65625 13.382812 -18.640625 13.71875 -18.609375 C 14.050781 -18.585938 14.320312 -18.554688 14.53125 -18.515625 L 14.15625 -13.828125 C 13.988281 -13.878906 13.753906 -13.914062 13.453125 -13.9375 C 13.148438 -13.96875 12.890625 -13.984375 12.671875 -13.984375 C 12.035156 -13.984375 11.410156 -13.898438 10.796875 -13.734375 C 10.191406 -13.578125 9.648438 -13.316406 9.171875 -12.953125 C 8.691406 -12.585938 8.3125 -12.101562 8.03125 -11.5 C 7.75 -10.90625 7.609375 -10.179688 7.609375 -9.328125 L 7.609375 0 L 2.625 0 L 2.625 -18.3125 L 6.40625 -18.3125 L 7.140625 -15.234375 L 7.390625 -15.234375 C 7.742188 -15.859375 8.191406 -16.425781 8.734375 -16.9375 C 9.273438 -17.457031 9.890625 -17.875 10.578125 -18.1875 C 11.273438 -18.5 12.03125 -18.65625 12.84375 -18.65625 Z M 12.84375 -18.65625 "/></g></g></g><g fill="#000000" fill-opacity="1"><g transform="translate(43.848491, 150.529315)"><g><path d="M 10.125 -18.6875 C 12.582031 -18.6875 14.460938 -18.148438 15.765625 -17.078125 C 17.078125 -16.015625 17.734375 -14.390625 17.734375 -12.203125 L 17.734375 0 L 14.25 0 L 13.28125 -2.484375 L 13.15625 -2.484375 C 12.625 -1.828125 12.085938 -1.289062 11.546875 -0.875 C 11.003906 -0.46875 10.375 -0.164062 9.65625 0.03125 C 8.945312 0.226562 8.085938 0.328125 7.078125 0.328125 C 5.992188 0.328125 5.023438 0.117188 4.171875 -0.296875 C 3.316406 -0.710938 2.640625 -1.347656 2.140625 -2.203125 C 1.648438 -3.054688 1.40625 -4.144531 1.40625 -5.46875 C 1.40625 -7.414062 2.085938 -8.847656 3.453125 -9.765625 C 4.816406 -10.691406 6.863281 -11.203125 9.59375 -11.296875 L 12.78125 -11.40625 L 12.78125 -12.203125 C 12.78125 -13.160156 12.523438 -13.863281 12.015625 -14.3125 C 11.515625 -14.757812 10.816406 -14.984375 9.921875 -14.984375 C 9.035156 -14.984375 8.164062 -14.859375 7.3125 -14.609375 C 6.46875 -14.359375 5.617188 -14.039062 4.765625 -13.65625 L 3.109375 -17.03125 C 4.078125 -17.550781 5.164062 -17.957031 6.375 -18.25 C 7.582031 -18.539062 8.832031 -18.6875 10.125 -18.6875 Z M 12.78125 -8.484375 L 10.84375 -8.421875 C 9.226562 -8.378906 8.101562 -8.085938 7.46875 -7.546875 C 6.84375 -7.015625 6.53125 -6.3125 6.53125 -5.4375 C 6.53125 -4.675781 6.753906 -4.132812 7.203125 -3.8125 C 7.648438 -3.488281 8.234375 -3.328125 8.953125 -3.328125 C 10.023438 -3.328125 10.929688 -3.640625 11.671875 -4.265625 C 12.410156 -4.898438 12.78125 -5.804688 12.78125 -6.984375 Z M 12.78125 -8.484375 "/></g></g></g><g fill="#000000" fill-opacity="1"><g transform="translate(64.107458, 150.529315)"><g><path d="M 10.171875 -18.65625 C 11.867188 -18.65625 13.328125 -18.328125 14.546875 -17.671875 C 15.765625 -17.023438 16.707031 -16.082031 17.375 -14.84375 C 18.039062 -13.613281 18.375 -12.113281 18.375 -10.34375 L 18.375 -7.90625 L 6.5625 -7.90625 C 6.625 -6.5 7.050781 -5.394531 7.84375 -4.59375 C 8.632812 -3.789062 9.734375 -3.390625 11.140625 -3.390625 C 12.304688 -3.390625 13.375 -3.507812 14.34375 -3.75 C 15.320312 -3.988281 16.320312 -4.347656 17.34375 -4.828125 L 17.34375 -0.96875 C 16.4375 -0.519531 15.488281 -0.191406 14.5 0.015625 C 13.507812 0.222656 12.3125 0.328125 10.90625 0.328125 C 9.070312 0.328125 7.445312 -0.0078125 6.03125 -0.6875 C 4.625 -1.363281 3.515625 -2.394531 2.703125 -3.78125 C 1.898438 -5.164062 1.5 -6.914062 1.5 -9.03125 C 1.5 -11.164062 1.863281 -12.945312 2.59375 -14.375 C 3.320312 -15.800781 4.332031 -16.867188 5.625 -17.578125 C 6.925781 -18.296875 8.441406 -18.65625 10.171875 -18.65625 Z M 10.203125 -15.109375 C 9.234375 -15.109375 8.425781 -14.796875 7.78125 -14.171875 C 7.144531 -13.546875 6.78125 -12.566406 6.6875 -11.234375 L 13.6875 -11.234375 C 13.675781 -11.972656 13.539062 -12.632812 13.28125 -13.21875 C 13.03125 -13.800781 12.648438 -14.257812 12.140625 -14.59375 C 11.640625 -14.9375 10.992188 -15.109375 10.203125 -15.109375 Z M 10.203125 -15.109375 "/></g></g></g><g fill="#000000" fill-opacity="1"><g transform="translate(83.924229, 150.529315)"><g><path d="M 7.609375 0 L 2.625 0 L 2.625 -25.484375 L 7.609375 -25.484375 Z M 7.609375 0 "/></g></g></g><g fill="#000000" fill-opacity="1"><g transform="translate(94.160168, 150.529315)"><g><path d="M 15.390625 -5.4375 C 15.390625 -4.195312 15.097656 -3.144531 14.515625 -2.28125 C 13.929688 -1.425781 13.0625 -0.773438 11.90625 -0.328125 C 10.75 0.109375 9.304688 0.328125 7.578125 0.328125 C 6.304688 0.328125 5.210938 0.242188 4.296875 0.078125 C 3.390625 -0.078125 2.472656 -0.347656 1.546875 -0.734375 L 1.546875 -4.859375 C 2.535156 -4.410156 3.597656 -4.039062 4.734375 -3.75 C 5.878906 -3.46875 6.882812 -3.328125 7.75 -3.328125 C 8.71875 -3.328125 9.410156 -3.46875 9.828125 -3.75 C 10.253906 -4.039062 10.46875 -4.421875 10.46875 -4.890625 C 10.46875 -5.203125 10.378906 -5.476562 10.203125 -5.71875 C 10.035156 -5.96875 9.671875 -6.25 9.109375 -6.5625 C 8.554688 -6.875 7.6875 -7.28125 6.5 -7.78125 C 5.351562 -8.257812 4.410156 -8.742188 3.671875 -9.234375 C 2.941406 -9.722656 2.394531 -10.300781 2.03125 -10.96875 C 1.675781 -11.644531 1.5 -12.503906 1.5 -13.546875 C 1.5 -15.234375 2.15625 -16.503906 3.46875 -17.359375 C 4.789062 -18.222656 6.554688 -18.65625 8.765625 -18.65625 C 9.898438 -18.65625 10.984375 -18.539062 12.015625 -18.3125 C 13.046875 -18.082031 14.109375 -17.71875 15.203125 -17.21875 L 13.6875 -13.609375 C 12.78125 -14.003906 11.925781 -14.328125 11.125 -14.578125 C 10.320312 -14.828125 9.507812 -14.953125 8.6875 -14.953125 C 7.945312 -14.953125 7.390625 -14.851562 7.015625 -14.65625 C 6.648438 -14.457031 6.46875 -14.160156 6.46875 -13.765625 C 6.46875 -13.460938 6.5625 -13.195312 6.75 -12.96875 C 6.945312 -12.738281 7.320312 -12.484375 7.875 -12.203125 C 8.425781 -11.929688 9.234375 -11.578125 10.296875 -11.140625 C 11.335938 -10.710938 12.238281 -10.265625 13 -9.796875 C 13.769531 -9.335938 14.359375 -8.765625 14.765625 -8.078125 C 15.179688 -7.398438 15.390625 -6.519531 15.390625 -5.4375 Z M 15.390625 -5.4375 "/></g></g></g><g fill="#000000" fill-opacity="1"><g transform="translate(110.832467, 150.529315)"><g/></g></g><g fill="#000000" fill-opacity="1"><g transform="translate(119.545283, 150.529315)"><g><path d="M 3.015625 0 L 3.015625 -23.953125 L 8.09375 -23.953125 L 8.09375 -4.1875 L 17.8125 -4.1875 L 17.8125 0 Z M 3.015625 0 "/></g></g></g><g fill="#000000" fill-opacity="1"><g transform="translate(138.494057, 150.529315)"><g><path d="M 10.125 -18.6875 C 12.582031 -18.6875 14.460938 -18.148438 15.765625 -17.078125 C 17.078125 -16.015625 17.734375 -14.390625 17.734375 -12.203125 L 17.734375 0 L 14.25 0 L 13.28125 -2.484375 L 13.15625 -2.484375 C 12.625 -1.828125 12.085938 -1.289062 11.546875 -0.875 C 11.003906 -0.46875 10.375 -0.164062 9.65625 0.03125 C 8.945312 0.226562 8.085938 0.328125 7.078125 0.328125 C 5.992188 0.328125 5.023438 0.117188 4.171875 -0.296875 C 3.316406 -0.710938 2.640625 -1.347656 2.140625 -2.203125 C 1.648438 -3.054688 1.40625 -4.144531 1.40625 -5.46875 C 1.40625 -7.414062 2.085938 -8.847656 3.453125 -9.765625 C 4.816406 -10.691406 6.863281 -11.203125 9.59375 -11.296875 L 12.78125 -11.40625 L 12.78125 -12.203125 C 12.78125 -13.160156 12.523438 -13.863281 12.015625 -14.3125 C 11.515625 -14.757812 10.816406 -14.984375 9.921875 -14.984375 C 9.035156 -14.984375 8.164062 -14.859375 7.3125 -14.609375 C 6.46875 -14.359375 5.617188 -14.039062 4.765625 -13.65625 L 3.109375 -17.03125 C 4.078125 -17.550781 5.164062 -17.957031 6.375 -18.25 C 7.582031 -18.539062 8.832031 -18.6875 10.125 -18.6875 Z M 12.78125 -8.484375 L 10.84375 -8.421875 C 9.226562 -8.378906 8.101562 -8.085938 7.46875 -7.546875 C 6.84375 -7.015625 6.53125 -6.3125 6.53125 -5.4375 C 6.53125 -4.675781 6.753906 -4.132812 7.203125 -3.8125 C 7.648438 -3.488281 8.234375 -3.328125 8.953125 -3.328125 C 10.023438 -3.328125 10.929688 -3.640625 11.671875 -4.265625 C 12.410156 -4.898438 12.78125 -5.804688 12.78125 -6.984375 Z M 12.78125 -8.484375 "/></g></g></g><g fill="#000000" fill-opacity="1"><g transform="translate(158.75303, 150.529315)"><g><path d="M 13.015625 -18.65625 C 14.972656 -18.65625 16.546875 -18.125 17.734375 -17.0625 C 18.929688 -16 19.53125 -14.289062 19.53125 -11.9375 L 19.53125 0 L 14.53125 0 L 14.53125 -10.703125 C 14.53125 -12.003906 14.289062 -12.988281 13.8125 -13.65625 C 13.34375 -14.320312 12.597656 -14.65625 11.578125 -14.65625 C 10.046875 -14.65625 9 -14.132812 8.4375 -13.09375 C 7.882812 -12.0625 7.609375 -10.566406 7.609375 -8.609375 L 7.609375 0 L 2.625 0 L 2.625 -18.3125 L 6.4375 -18.3125 L 7.109375 -15.96875 L 7.390625 -15.96875 C 7.785156 -16.601562 8.273438 -17.113281 8.859375 -17.5 C 9.441406 -17.894531 10.085938 -18.1875 10.796875 -18.375 C 11.515625 -18.5625 12.253906 -18.65625 13.015625 -18.65625 Z M 13.015625 -18.65625 "/></g></g></g><g fill="#000000" fill-opacity="1"><g transform="translate(180.797135, 150.529315)"><g><path d="M 8.421875 0.328125 C 6.378906 0.328125 4.710938 -0.46875 3.421875 -2.0625 C 2.140625 -3.664062 1.5 -6.019531 1.5 -9.125 C 1.5 -12.257812 2.148438 -14.628906 3.453125 -16.234375 C 4.753906 -17.847656 6.453125 -18.65625 8.546875 -18.65625 C 9.421875 -18.65625 10.191406 -18.535156 10.859375 -18.296875 C 11.523438 -18.054688 12.097656 -17.734375 12.578125 -17.328125 C 13.066406 -16.921875 13.484375 -16.46875 13.828125 -15.96875 L 13.984375 -15.96875 C 13.921875 -16.320312 13.84375 -16.835938 13.75 -17.515625 C 13.65625 -18.203125 13.609375 -18.90625 13.609375 -19.625 L 13.609375 -25.484375 L 18.625 -25.484375 L 18.625 0 L 14.796875 0 L 13.828125 -2.375 L 13.609375 -2.375 C 13.296875 -1.875 12.898438 -1.414062 12.421875 -1 C 11.953125 -0.59375 11.390625 -0.269531 10.734375 -0.03125 C 10.078125 0.207031 9.304688 0.328125 8.421875 0.328125 Z M 10.171875 -3.65625 C 11.535156 -3.65625 12.5 -4.0625 13.0625 -4.875 C 13.625 -5.6875 13.921875 -6.910156 13.953125 -8.546875 L 13.953125 -9.09375 C 13.953125 -10.875 13.675781 -12.234375 13.125 -13.171875 C 12.582031 -14.117188 11.570312 -14.59375 10.09375 -14.59375 C 8.988281 -14.59375 8.125 -14.117188 7.5 -13.171875 C 6.875 -12.222656 6.5625 -10.851562 6.5625 -9.0625 C 6.5625 -7.269531 6.875 -5.921875 7.5 -5.015625 C 8.132812 -4.109375 9.023438 -3.65625 10.171875 -3.65625 Z M 10.171875 -3.65625 "/></g></g></g><g fill="#000000" fill-opacity="1"><g transform="translate(202.022372, 150.529315)"><g><path d="M 15.390625 -5.4375 C 15.390625 -4.195312 15.097656 -3.144531 14.515625 -2.28125 C 13.929688 -1.425781 13.0625 -0.773438 11.90625 -0.328125 C 10.75 0.109375 9.304688 0.328125 7.578125 0.328125 C 6.304688 0.328125 5.210938 0.242188 4.296875 0.078125 C 3.390625 -0.078125 2.472656 -0.347656 1.546875 -0.734375 L 1.546875 -4.859375 C 2.535156 -4.410156 3.597656 -4.039062 4.734375 -3.75 C 5.878906 -3.46875 6.882812 -3.328125 7.75 -3.328125 C 8.71875 -3.328125 9.410156 -3.46875 9.828125 -3.75 C 10.253906 -4.039062 10.46875 -4.421875 10.46875 -4.890625 C 10.46875 -5.203125 10.378906 -5.476562 10.203125 -5.71875 C 10.035156 -5.96875 9.671875 -6.25 9.109375 -6.5625 C 8.554688 -6.875 7.6875 -7.28125 6.5 -7.78125 C 5.351562 -8.257812 4.410156 -8.742188 3.671875 -9.234375 C 2.941406 -9.722656 2.394531 -10.300781 2.03125 -10.96875 C 1.675781 -11.644531 1.5 -12.503906 1.5 -13.546875 C 1.5 -15.234375 2.15625 -16.503906 3.46875 -17.359375 C 4.789062 -18.222656 6.554688 -18.65625 8.765625 -18.65625 C 9.898438 -18.65625 10.984375 -18.539062 12.015625 -18.3125 C 13.046875 -18.082031 14.109375 -17.71875 15.203125 -17.21875 L 13.6875 -13.609375 C 12.78125 -14.003906 11.925781 -14.328125 11.125 -14.578125 C 10.320312 -14.828125 9.507812 -14.953125 8.6875 -14.953125 C 7.945312 -14.953125 7.390625 -14.851562 7.015625 -14.65625 C 6.648438 -14.457031 6.46875 -14.160156 6.46875 -13.765625 C 6.46875 -13.460938 6.5625 -13.195312 6.75 -12.96875 C 6.945312 -12.738281 7.320312 -12.484375 7.875 -12.203125 C 8.425781 -11.929688 9.234375 -11.578125 10.296875 -11.140625 C 11.335938 -10.710938 12.238281 -10.265625 13 -9.796875 C 13.769531 -9.335938 14.359375 -8.765625 14.765625 -8.078125 C 15.179688 -7.398438 15.390625 -6.519531 15.390625 -5.4375 Z M 15.390625 -5.4375 "/></g></g></g><g fill="#000000" fill-opacity="1"><g transform="translate(218.694658, 150.529315)"><g><path d="M 10.0625 0.328125 C 8.25 0.328125 6.703125 0 5.421875 -0.65625 C 4.140625 -1.320312 3.164062 -2.347656 2.5 -3.734375 C 1.832031 -5.117188 1.5 -6.894531 1.5 -9.0625 C 1.5 -11.300781 1.878906 -13.125 2.640625 -14.53125 C 3.398438 -15.945312 4.453125 -16.988281 5.796875 -17.65625 C 7.148438 -18.320312 8.71875 -18.65625 10.5 -18.65625 C 11.769531 -18.65625 12.863281 -18.53125 13.78125 -18.28125 C 14.707031 -18.039062 15.515625 -17.75 16.203125 -17.40625 L 14.71875 -13.546875 C 13.9375 -13.859375 13.207031 -14.113281 12.53125 -14.3125 C 11.851562 -14.519531 11.175781 -14.625 10.5 -14.625 C 9.625 -14.625 8.894531 -14.421875 8.3125 -14.015625 C 7.738281 -13.609375 7.304688 -12.992188 7.015625 -12.171875 C 6.734375 -11.347656 6.59375 -10.320312 6.59375 -9.09375 C 6.59375 -7.875 6.742188 -6.863281 7.046875 -6.0625 C 7.359375 -5.269531 7.800781 -4.679688 8.375 -4.296875 C 8.957031 -3.910156 9.664062 -3.71875 10.5 -3.71875 C 11.539062 -3.71875 12.460938 -3.851562 13.265625 -4.125 C 14.078125 -4.40625 14.863281 -4.800781 15.625 -5.3125 L 15.625 -1.03125 C 14.863281 -0.550781 14.0625 -0.207031 13.21875 0 C 12.382812 0.21875 11.332031 0.328125 10.0625 0.328125 Z M 10.0625 0.328125 "/></g></g></g><g fill="#000000" fill-opacity="1"><g transform="translate(235.94016, 150.529315)"><g><path d="M 10.125 -18.6875 C 12.582031 -18.6875 14.460938 -18.148438 15.765625 -17.078125 C 17.078125 -16.015625 17.734375 -14.390625 17.734375 -12.203125 L 17.734375 0 L 14.25 0 L 13.28125 -2.484375 L 13.15625 -2.484375 C 12.625 -1.828125 12.085938 -1.289062 11.546875 -0.875 C 11.003906 -0.46875 10.375 -0.164062 9.65625 0.03125 C 8.945312 0.226562 8.085938 0.328125 7.078125 0.328125 C 5.992188 0.328125 5.023438 0.117188 4.171875 -0.296875 C 3.316406 -0.710938 2.640625 -1.347656 2.140625 -2.203125 C 1.648438 -3.054688 1.40625 -4.144531 1.40625 -5.46875 C 1.40625 -7.414062 2.085938 -8.847656 3.453125 -9.765625 C 4.816406 -10.691406 6.863281 -11.203125 9.59375 -11.296875 L 12.78125 -11.40625 L 12.78125 -12.203125 C 12.78125 -13.160156 12.523438 -13.863281 12.015625 -14.3125 C 11.515625 -14.757812 10.816406 -14.984375 9.921875 -14.984375 C 9.035156 -14.984375 8.164062 -14.859375 7.3125 -14.609375 C 6.46875 -14.359375 5.617188 -14.039062 4.765625 -13.65625 L 3.109375 -17.03125 C 4.078125 -17.550781 5.164062 -17.957031 6.375 -18.25 C 7.582031 -18.539062 8.832031 -18.6875 10.125 -18.6875 Z M 12.78125 -8.484375 L 10.84375 -8.421875 C 9.226562 -8.378906 8.101562 -8.085938 7.46875 -7.546875 C 6.84375 -7.015625 6.53125 -6.3125 6.53125 -5.4375 C 6.53125 -4.675781 6.753906 -4.132812 7.203125 -3.8125 C 7.648438 -3.488281 8.234375 -3.328125 8.953125 -3.328125 C 10.023438 -3.328125 10.929688 -3.640625 11.671875 -4.265625 C 12.410156 -4.898438 12.78125 -5.804688 12.78125 -6.984375 Z M 12.78125 -8.484375 "/></g></g></g><g fill="#000000" fill-opacity="1"><g transform="translate(256.199145, 150.529315)"><g><path d="M 12.8125 -18.65625 C 14.875 -18.65625 16.539062 -17.851562 17.8125 -16.25 C 19.082031 -14.644531 19.71875 -12.289062 19.71875 -9.1875 C 19.71875 -7.113281 19.414062 -5.367188 18.8125 -3.953125 C 18.21875 -2.535156 17.390625 -1.46875 16.328125 -0.75 C 15.273438 -0.03125 14.054688 0.328125 12.671875 0.328125 C 11.785156 0.328125 11.023438 0.21875 10.390625 0 C 9.765625 -0.226562 9.226562 -0.519531 8.78125 -0.875 C 8.332031 -1.226562 7.941406 -1.609375 7.609375 -2.015625 L 7.359375 -2.015625 C 7.441406 -1.578125 7.503906 -1.128906 7.546875 -0.671875 C 7.585938 -0.210938 7.609375 0.234375 7.609375 0.671875 L 7.609375 8.0625 L 2.625 8.0625 L 2.625 -18.3125 L 6.6875 -18.3125 L 7.390625 -15.9375 L 7.609375 -15.9375 C 7.941406 -16.425781 8.34375 -16.878906 8.8125 -17.296875 C 9.28125 -17.710938 9.84375 -18.039062 10.5 -18.28125 C 11.164062 -18.53125 11.9375 -18.65625 12.8125 -18.65625 Z M 11.203125 -14.65625 C 10.328125 -14.65625 9.632812 -14.472656 9.125 -14.109375 C 8.613281 -13.753906 8.238281 -13.21875 8 -12.5 C 7.769531 -11.78125 7.640625 -10.867188 7.609375 -9.765625 L 7.609375 -9.21875 C 7.609375 -8.039062 7.71875 -7.039062 7.9375 -6.21875 C 8.164062 -5.40625 8.546875 -4.785156 9.078125 -4.359375 C 9.609375 -3.929688 10.335938 -3.71875 11.265625 -3.71875 C 12.035156 -3.71875 12.664062 -3.929688 13.15625 -4.359375 C 13.644531 -4.785156 14.007812 -5.410156 14.25 -6.234375 C 14.5 -7.054688 14.625 -8.0625 14.625 -9.25 C 14.625 -11.039062 14.34375 -12.390625 13.78125 -13.296875 C 13.226562 -14.203125 12.367188 -14.65625 11.203125 -14.65625 Z M 11.203125 -14.65625 "/></g></g></g><g fill="#000000" fill-opacity="1"><g transform="translate(277.424382, 150.529315)"><g><path d="M 7.609375 -18.3125 L 7.609375 0 L 2.625 0 L 2.625 -18.3125 Z M 5.125 -25.484375 C 5.863281 -25.484375 6.5 -25.3125 7.03125 -24.96875 C 7.570312 -24.625 7.84375 -23.984375 7.84375 -23.046875 C 7.84375 -22.117188 7.570312 -21.476562 7.03125 -21.125 C 6.5 -20.769531 5.863281 -20.59375 5.125 -20.59375 C 4.375 -20.59375 3.734375 -20.769531 3.203125 -21.125 C 2.671875 -21.476562 2.40625 -22.117188 2.40625 -23.046875 C 2.40625 -23.984375 2.671875 -24.625 3.203125 -24.96875 C 3.734375 -25.3125 4.375 -25.484375 5.125 -25.484375 Z M 5.125 -25.484375 "/></g></g></g><g fill="#000000" fill-opacity="1"><g transform="translate(287.660303, 150.529315)"><g><path d="M 13.015625 -18.65625 C 14.972656 -18.65625 16.546875 -18.125 17.734375 -17.0625 C 18.929688 -16 19.53125 -14.289062 19.53125 -11.9375 L 19.53125 0 L 14.53125 0 L 14.53125 -10.703125 C 14.53125 -12.003906 14.289062 -12.988281 13.8125 -13.65625 C 13.34375 -14.320312 12.597656 -14.65625 11.578125 -14.65625 C 10.046875 -14.65625 9 -14.132812 8.4375 -13.09375 C 7.882812 -12.0625 7.609375 -10.566406 7.609375 -8.609375 L 7.609375 0 L 2.625 0 L 2.625 -18.3125 L 6.4375 -18.3125 L 7.109375 -15.96875 L 7.390625 -15.96875 C 7.785156 -16.601562 8.273438 -17.113281 8.859375 -17.5 C 9.441406 -17.894531 10.085938 -18.1875 10.796875 -18.375 C 11.515625 -18.5625 12.253906 -18.65625 13.015625 -18.65625 Z M 13.015625 -18.65625 "/></g></g></g><g clip-path="url(#78e9e0a7a1)"><g fill="#000000" fill-opacity="1"><g transform="translate(309.704432, 150.529315)"><g><path d="M 7.984375 8.0625 C 5.421875 8.0625 3.460938 7.613281 2.109375 6.71875 C 0.765625 5.832031 0.09375 4.585938 0.09375 2.984375 C 0.09375 1.878906 0.4375 0.953125 1.125 0.203125 C 1.8125 -0.535156 2.820312 -1.0625 4.15625 -1.375 C 3.644531 -1.59375 3.195312 -1.945312 2.8125 -2.4375 C 2.4375 -2.9375 2.25 -3.46875 2.25 -4.03125 C 2.25 -4.726562 2.445312 -5.304688 2.84375 -5.765625 C 3.25 -6.234375 3.835938 -6.691406 4.609375 -7.140625 C 3.640625 -7.554688 2.875 -8.222656 2.3125 -9.140625 C 1.75 -10.054688 1.46875 -11.140625 1.46875 -12.390625 C 1.46875 -13.710938 1.757812 -14.84375 2.34375 -15.78125 C 2.9375 -16.71875 3.789062 -17.429688 4.90625 -17.921875 C 6.019531 -18.410156 7.382812 -18.65625 9 -18.65625 C 9.332031 -18.65625 9.722656 -18.632812 10.171875 -18.59375 C 10.617188 -18.550781 11.03125 -18.5 11.40625 -18.4375 C 11.78125 -18.382812 12.035156 -18.34375 12.171875 -18.3125 L 18.5625 -18.3125 L 18.5625 -15.78125 L 15.6875 -15.03125 C 15.945312 -14.632812 16.144531 -14.207031 16.28125 -13.75 C 16.414062 -13.289062 16.484375 -12.800781 16.484375 -12.28125 C 16.484375 -10.320312 15.796875 -8.789062 14.421875 -7.6875 C 13.046875 -6.59375 11.144531 -6.046875 8.71875 -6.046875 C 8.132812 -6.078125 7.585938 -6.117188 7.078125 -6.171875 C 6.828125 -5.972656 6.632812 -5.765625 6.5 -5.546875 C 6.375 -5.328125 6.3125 -5.097656 6.3125 -4.859375 C 6.3125 -4.617188 6.410156 -4.421875 6.609375 -4.265625 C 6.804688 -4.109375 7.109375 -3.988281 7.515625 -3.90625 C 7.929688 -3.820312 8.445312 -3.78125 9.0625 -3.78125 L 12.171875 -3.78125 C 14.179688 -3.78125 15.710938 -3.347656 16.765625 -2.484375 C 17.816406 -1.628906 18.34375 -0.363281 18.34375 1.3125 C 18.34375 3.445312 17.445312 5.101562 15.65625 6.28125 C 13.875 7.46875 11.316406 8.0625 7.984375 8.0625 Z M 8.1875 4.796875 C 9.375 4.796875 10.394531 4.679688 11.25 4.453125 C 12.113281 4.234375 12.773438 3.921875 13.234375 3.515625 C 13.691406 3.109375 13.921875 2.617188 13.921875 2.046875 C 13.921875 1.585938 13.785156 1.222656 13.515625 0.953125 C 13.253906 0.691406 12.851562 0.503906 12.3125 0.390625 C 11.769531 0.285156 11.078125 0.234375 10.234375 0.234375 L 7.65625 0.234375 C 7.039062 0.234375 6.488281 0.328125 6 0.515625 C 5.519531 0.710938 5.132812 0.988281 4.84375 1.34375 C 4.5625 1.707031 4.421875 2.125 4.421875 2.59375 C 4.421875 3.28125 4.75 3.816406 5.40625 4.203125 C 6.070312 4.597656 7 4.796875 8.1875 4.796875 Z M 9 -9.09375 C 9.9375 -9.09375 10.625 -9.378906 11.0625 -9.953125 C 11.5 -10.535156 11.71875 -11.320312 11.71875 -12.3125 C 11.71875 -13.414062 11.488281 -14.242188 11.03125 -14.796875 C 10.582031 -15.347656 9.90625 -15.625 9 -15.625 C 8.070312 -15.625 7.378906 -15.347656 6.921875 -14.796875 C 6.460938 -14.242188 6.234375 -13.414062 6.234375 -12.3125 C 6.234375 -11.320312 6.457031 -10.535156 6.90625 -9.953125 C 7.363281 -9.378906 8.0625 -9.09375 9 -9.09375 Z M 9 -9.09375 "/></g></g></g></g><g clip-path="url(#a9de365d6b)"><g transform="matrix(1, 0, 0, 1, 107, 157)"><g clip-path="url(#d0f699903d)"><g fill="#000000" fill-opacity="1"><g transform="translate(30.941639, 0.788334)"><g><path d="M -9.140625 3.0625 C -5.253906 5.300781 -1.351562 7.210938 2.5625 8.796875 C 6.488281 10.378906 10.929688 11.648438 15.890625 12.609375 C 20.847656 13.566406 26.375 14.046875 32.46875 14.046875 C 38.5625 14.046875 44.09375 13.566406 49.0625 12.609375 C 54.039062 11.648438 58.488281 10.382812 62.40625 8.8125 C 66.332031 7.25 70.238281 5.332031 74.125 3.0625 L 75.140625 3.25 L 75.140625 13.5625 C 71.671875 16.34375 68 18.800781 64.125 20.9375 C 60.257812 23.082031 55.675781 24.84375 50.375 26.21875 C 45.082031 27.601562 39.113281 28.296875 32.46875 28.296875 C 22.90625 28.296875 14.769531 26.941406 8.0625 24.234375 C 1.351562 21.523438 -4.71875 17.96875 -10.15625 13.5625 L -10.15625 3.25 Z M -9.140625 3.0625 "/></g></g></g></g></g></g></g></g></svg>
