<?xml version="1.0" encoding="utf-8"?>
<svg xmlns="http://www.w3.org/2000/svg" viewBox="0 0 500 500" xmlns:bx="https://boxy-svg.com">
  <defs>
    <g/>
    <clipPath id="9fd968d836">
      <path d="M 237 148.316406 L 270.855469 148.316406 L 270.855469 181.769531 L 237 181.769531 Z M 237 148.316406 " clip-rule="nonzero"/>
    </clipPath>
    <clipPath id="ee982bf4f8">
      <path d="M 110.871094 148.316406 L 144.730469 148.316406 L 144.730469 181.769531 L 110.871094 181.769531 Z M 110.871094 148.316406 " clip-rule="nonzero"/>
    </clipPath>
    <clipPath id="c8fbf4947a">
      <path d="M 59.035156 62.519531 L 250 62.519531 L 250 163 L 59.035156 163 Z M 59.035156 62.519531 " clip-rule="nonzero"/>
    </clipPath>
    <clipPath id="fa939490f4">
      <rect x="0" width="139" y="0" height="38"/>
    </clipPath>
    <bx:export>
      <bx:file format="svg"/>
    </bx:export>
  </defs>
  <g clip-path="url(#9fd968d836)" transform="matrix(1.34469, 0, 0, 1.403112, -1.355394, 11.796289)">
    <path fill="#100f0d" d="M 270.796875 165.214844 C 270.796875 174.507812 263.265625 182.039062 253.972656 182.039062 C 244.679688 182.039062 237.148438 174.507812 237.148438 165.214844 C 237.148438 155.921875 244.679688 148.390625 253.972656 148.390625 C 263.265625 148.390625 270.796875 155.921875 270.796875 165.214844 " fill-opacity="1" fill-rule="nonzero"/>
  </g>
  <g clip-path="url(#ee982bf4f8)" transform="matrix(1.34469, 0, 0, 1.403112, -1.355394, 11.796289)">
    <path fill="#100f0d" d="M 144.605469 165.214844 C 144.605469 174.507812 137.074219 182.039062 127.78125 182.039062 C 118.488281 182.039062 110.953125 174.507812 110.953125 165.214844 C 110.953125 155.921875 118.488281 148.390625 127.78125 148.390625 C 137.074219 148.390625 144.605469 155.921875 144.605469 165.214844 " fill-opacity="1" fill-rule="nonzero"/>
  </g>
  <path fill="#100f0d" d="M 177.32 243.611 C 177.32 247.558 174.252 250.764 170.471 250.764 C 166.683 250.764 163.616 247.558 163.616 243.611 C 163.616 239.66 166.683 236.458 170.471 236.458 C 174.252 236.458 177.32 239.66 177.32 243.611" fill-opacity="1" fill-rule="nonzero" style="stroke-width: 1.374;"/>
  <path fill="#100f0d" d="M 347.014 243.611 C 347.014 247.558 343.946 250.764 340.159 250.764 C 336.372 250.764 333.304 247.558 333.304 243.611 C 333.304 239.66 336.372 236.458 340.159 236.458 C 343.946 236.458 347.014 239.66 347.014 243.611" fill-opacity="1" fill-rule="nonzero" style="stroke-width: 1.374;"/>
  <path fill="#100f0d" d="M 310.466 256.892 L 198.043 256.892 L 198.043 248.034 L 310.466 248.034 L 310.466 256.892" fill-opacity="1" fill-rule="nonzero" style="stroke-width: 1.374;"/>
  <path fill="#100f0d" d="M 243.378 172.239 C 241.913 183.108 280.552 179.951 286.46 179.232 C 288.425 178.996 290.427 178.663 292.171 177.682 C 293.914 176.705 295.374 174.957 295.564 172.901 C 298.49 173.587 302.645 176.086 303.37 179.447 C 305.916 191.268 278.524 190.419 272.604 190.468 C 263.539 190.545 254.352 190.606 245.563 188.277 C 243.22 187.656 240.82 186.813 239.108 185.031 C 234.449 180.186 239.412 175.023 243.378 172.239" fill-opacity="1" fill-rule="nonzero" style="stroke-width: 1.374;"/>
  <g clip-path="url(#c8fbf4947a)" transform="matrix(1.34469, 0, 0, 1.403112, -1.355394, 11.796289)">
    <path fill="#100f0d" d="M 69.773438 69.617188 L 81.210938 67.253906 L 123.332031 112.324219 C 123.164062 115.4375 122.984375 118.800781 122.808594 122.058594 Z M 245.59375 139.324219 C 243.894531 137.449219 242.261719 135.605469 240.261719 134.027344 C 236.167969 130.796875 230.894531 128.214844 225.546875 128.855469 C 220.890625 129.414062 216.574219 131.46875 211.832031 132.015625 C 207.011719 132.570312 202.136719 132.652344 197.292969 132.378906 C 191.027344 132.023438 180.113281 131.898438 174.808594 128.1875 C 173.308594 127.136719 172.046875 125.78125 170.613281 124.644531 C 167.410156 122.109375 163.996094 121.402344 160.085938 120.796875 C 158.597656 120.566406 157.710938 120.398438 157.074219 120.113281 C 155.605469 119.457031 154.824219 117.601562 153.9375 116.371094 C 152.703125 114.65625 151.308594 113.058594 149.789062 111.59375 C 146.472656 108.378906 142.550781 105.792969 138.285156 104.019531 C 137.03125 103.5 124.042969 99.167969 124.050781 99.042969 C 124.046875 99.050781 123.898438 101.824219 123.679688 105.910156 L 83.972656 62.519531 L 59.125 64.886719 L 122.546875 126.875 C 122.175781 133.785156 121.878906 139.265625 121.878906 139.265625 C 134.027344 141.257812 146.144531 143.367188 158.324219 145.027344 C 162.316406 145.570312 166.453125 146.738281 169.25 149.636719 C 172.46875 152.96875 173.117188 157.878906 171.941406 162.214844 C 181.703125 161.976562 191.550781 162.191406 201.332031 162.191406 C 203.347656 162.191406 229.46875 163.253906 229.734375 162.167969 C 233.882812 145.234375 249.644531 143.832031 249.644531 143.828125 C 249.148438 143.875 246.015625 139.792969 245.59375 139.324219 " fill-opacity="1" fill-rule="nonzero"/>
  </g>
  <g fill="#000000" fill-opacity="1" transform="matrix(1.34469, 0, 0, 1.403112, -1.355394, 11.796289)">
    <g transform="translate(16.149873, 215.320942)">
      <g>
        <path d="M 7.59375 -25.453125 L 7.59375 0 L 2.21875 0 L 2.21875 -25.453125 Z M 7.59375 -25.453125 "/>
      </g>
    </g>
  </g>
  <g fill="#000000" fill-opacity="1" transform="matrix(1.34469, 0, 0, 1.403112, -1.355394, 11.796289)">
    <g transform="translate(25.966523, 215.320942)">
      <g>
        <path d="M 18 -13.640625 L 13.15625 -13.34375 C 13.019531 -13.957031 12.679688 -14.484375 12.140625 -14.921875 C 11.597656 -15.367188 10.867188 -15.59375 9.953125 -15.59375 C 9.128906 -15.59375 8.429688 -15.414062 7.859375 -15.0625 C 7.296875 -14.71875 7.019531 -14.265625 7.03125 -13.703125 C 7.019531 -13.242188 7.195312 -12.851562 7.5625 -12.53125 C 7.9375 -12.21875 8.566406 -11.96875 9.453125 -11.78125 L 12.90625 -11.09375 C 16.582031 -10.332031 18.425781 -8.609375 18.4375 -5.921875 C 18.4375 -4.671875 18.066406 -3.570312 17.328125 -2.625 C 16.597656 -1.675781 15.59375 -0.9375 14.3125 -0.40625 C 13.039062 0.113281 11.582031 0.375 9.9375 0.375 C 7.40625 0.375 5.390625 -0.148438 3.890625 -1.203125 C 2.390625 -2.265625 1.515625 -3.707031 1.265625 -5.53125 L 6.46875 -5.796875 C 6.632812 -5.023438 7.019531 -4.4375 7.625 -4.03125 C 8.226562 -3.632812 9 -3.4375 9.9375 -3.4375 C 10.863281 -3.4375 11.609375 -3.617188 12.171875 -3.984375 C 12.742188 -4.347656 13.035156 -4.8125 13.046875 -5.375 C 13.023438 -6.320312 12.210938 -6.957031 10.609375 -7.28125 L 7.296875 -7.9375 C 3.597656 -8.675781 1.757812 -10.5 1.78125 -13.40625 C 1.769531 -15.238281 2.503906 -16.6875 3.984375 -17.75 C 5.460938 -18.8125 7.425781 -19.34375 9.875 -19.34375 C 12.28125 -19.34375 14.175781 -18.832031 15.5625 -17.8125 C 16.957031 -16.789062 17.769531 -15.398438 18 -13.640625 Z M 18 -13.640625 "/>
      </g>
    </g>
  </g>
  <g fill="#000000" fill-opacity="1" transform="matrix(1.34469, 0, 0, 1.403112, -1.355394, 11.796289)">
    <g transform="translate(45.624667, 215.320942)">
      <g>
        <path d="M 2.109375 0 L 2.109375 -19.09375 L 7.25 -19.09375 L 7.25 -15.765625 L 7.4375 -15.765625 C 7.789062 -16.941406 8.375 -17.832031 9.1875 -18.4375 C 10.007812 -19.050781 10.957031 -19.359375 12.03125 -19.359375 C 12.539062 -19.359375 13.015625 -19.296875 13.453125 -19.171875 C 13.898438 -19.046875 14.296875 -18.878906 14.640625 -18.671875 L 13.046875 -14.296875 C 12.796875 -14.421875 12.523438 -14.523438 12.234375 -14.609375 C 11.941406 -14.691406 11.613281 -14.734375 11.25 -14.734375 C 10.175781 -14.734375 9.269531 -14.367188 8.53125 -13.640625 C 7.789062 -12.910156 7.414062 -11.960938 7.40625 -10.796875 L 7.40625 0 Z M 2.109375 0 "/>
      </g>
    </g>
  </g>
  <g fill="#000000" fill-opacity="1" transform="matrix(1.34469, 0, 0, 1.403112, -1.355394, 11.796289)">
    <g transform="translate(60.088648, 215.320942)">
      <g>
        <path d="M 7.5625 0.359375 C 5.738281 0.359375 4.222656 -0.113281 3.015625 -1.0625 C 1.816406 -2.019531 1.21875 -3.441406 1.21875 -5.328125 C 1.21875 -6.753906 1.550781 -7.875 2.21875 -8.6875 C 2.894531 -9.5 3.773438 -10.09375 4.859375 -10.46875 C 5.953125 -10.84375 7.128906 -11.09375 8.390625 -11.21875 C 10.046875 -11.375 11.226562 -11.539062 11.9375 -11.71875 C 12.65625 -11.90625 13.015625 -12.304688 13.015625 -12.921875 L 13.015625 -13 C 13.015625 -13.789062 12.765625 -14.398438 12.265625 -14.828125 C 11.773438 -15.253906 11.078125 -15.46875 10.171875 -15.46875 C 9.222656 -15.46875 8.46875 -15.257812 7.90625 -14.84375 C 7.34375 -14.4375 6.96875 -13.914062 6.78125 -13.28125 L 1.890625 -13.671875 C 2.253906 -15.410156 3.160156 -16.789062 4.609375 -17.8125 C 6.054688 -18.832031 7.921875 -19.34375 10.203125 -19.34375 C 11.617188 -19.34375 12.941406 -19.117188 14.171875 -18.671875 C 15.410156 -18.222656 16.410156 -17.523438 17.171875 -16.578125 C 17.929688 -15.628906 18.3125 -14.394531 18.3125 -12.875 L 18.3125 0 L 13.28125 0 L 13.28125 -2.640625 L 13.140625 -2.640625 C 12.671875 -1.753906 11.972656 -1.03125 11.046875 -0.46875 C 10.128906 0.0820312 8.96875 0.359375 7.5625 0.359375 Z M 9.078125 -3.296875 C 10.234375 -3.296875 11.179688 -3.628906 11.921875 -4.296875 C 12.671875 -4.972656 13.046875 -5.816406 13.046875 -6.828125 L 13.046875 -8.84375 C 12.835938 -8.707031 12.515625 -8.582031 12.078125 -8.46875 C 11.648438 -8.363281 11.1875 -8.269531 10.6875 -8.1875 C 10.195312 -8.113281 9.757812 -8.046875 9.375 -7.984375 C 8.445312 -7.859375 7.695312 -7.597656 7.125 -7.203125 C 6.5625 -6.816406 6.28125 -6.25 6.28125 -5.5 C 6.28125 -4.769531 6.539062 -4.21875 7.0625 -3.84375 C 7.59375 -3.476562 8.265625 -3.296875 9.078125 -3.296875 Z M 9.078125 -3.296875 "/>
      </g>
    </g>
  </g>
  <g fill="#000000" fill-opacity="1" transform="matrix(1.34469, 0, 0, 1.403112, -1.355394, 11.796289)">
    <g transform="translate(80.39296, 215.320942)">
      <g>
        <path d="M 10.8125 0.375 C 8.851562 0.375 7.164062 -0.0234375 5.75 -0.828125 C 4.332031 -1.628906 3.242188 -2.765625 2.484375 -4.234375 C 1.722656 -5.703125 1.34375 -7.441406 1.34375 -9.453125 C 1.34375 -11.421875 1.722656 -13.144531 2.484375 -14.625 C 3.242188 -16.113281 4.316406 -17.269531 5.703125 -18.09375 C 7.097656 -18.925781 8.734375 -19.34375 10.609375 -19.34375 C 12.285156 -19.34375 13.800781 -18.984375 15.15625 -18.265625 C 16.507812 -17.554688 17.582031 -16.484375 18.375 -15.046875 C 19.175781 -13.609375 19.578125 -11.804688 19.578125 -9.640625 L 19.578125 -8.1875 L 6.578125 -8.1875 L 6.578125 -8.171875 C 6.578125 -6.753906 6.960938 -5.632812 7.734375 -4.8125 C 8.515625 -3.988281 9.570312 -3.578125 10.90625 -3.578125 C 11.789062 -3.578125 12.554688 -3.765625 13.203125 -4.140625 C 13.847656 -4.515625 14.300781 -5.066406 14.5625 -5.796875 L 19.46875 -5.46875 C 19.09375 -3.695312 18.144531 -2.28125 16.625 -1.21875 C 15.113281 -0.15625 13.175781 0.375 10.8125 0.375 Z M 6.578125 -11.46875 L 14.59375 -11.46875 C 14.582031 -12.601562 14.21875 -13.539062 13.5 -14.28125 C 12.78125 -15.019531 11.84375 -15.390625 10.6875 -15.390625 C 9.507812 -15.390625 8.539062 -15.003906 7.78125 -14.234375 C 7.03125 -13.472656 6.628906 -12.550781 6.578125 -11.46875 Z M 6.578125 -11.46875 "/>
      </g>
    </g>
  </g>
  <g fill="#000000" fill-opacity="1" transform="matrix(1.34469, 0, 0, 1.403112, -1.355394, 11.796289)">
    <g transform="translate(101.306144, 215.320942)">
      <g>
        <path d="M 7.40625 -25.453125 L 7.40625 0 L 2.109375 0 L 2.109375 -25.453125 Z M 7.40625 -25.453125 "/>
      </g>
    </g>
  </g>
  <g fill="#000000" fill-opacity="1" transform="matrix(1.34469, 0, 0, 1.403112, -1.355394, 11.796289)">
    <g transform="translate(110.824561, 215.320942)">
      <g>
        <path d="M 18 -13.640625 L 13.15625 -13.34375 C 13.019531 -13.957031 12.679688 -14.484375 12.140625 -14.921875 C 11.597656 -15.367188 10.867188 -15.59375 9.953125 -15.59375 C 9.128906 -15.59375 8.429688 -15.414062 7.859375 -15.0625 C 7.296875 -14.71875 7.019531 -14.265625 7.03125 -13.703125 C 7.019531 -13.242188 7.195312 -12.851562 7.5625 -12.53125 C 7.9375 -12.21875 8.566406 -11.96875 9.453125 -11.78125 L 12.90625 -11.09375 C 16.582031 -10.332031 18.425781 -8.609375 18.4375 -5.921875 C 18.4375 -4.671875 18.066406 -3.570312 17.328125 -2.625 C 16.597656 -1.675781 15.59375 -0.9375 14.3125 -0.40625 C 13.039062 0.113281 11.582031 0.375 9.9375 0.375 C 7.40625 0.375 5.390625 -0.148438 3.890625 -1.203125 C 2.390625 -2.265625 1.515625 -3.707031 1.265625 -5.53125 L 6.46875 -5.796875 C 6.632812 -5.023438 7.019531 -4.4375 7.625 -4.03125 C 8.226562 -3.632812 9 -3.4375 9.9375 -3.4375 C 10.863281 -3.4375 11.609375 -3.617188 12.171875 -3.984375 C 12.742188 -4.347656 13.035156 -4.8125 13.046875 -5.375 C 13.023438 -6.320312 12.210938 -6.957031 10.609375 -7.28125 L 7.296875 -7.9375 C 3.597656 -8.675781 1.757812 -10.5 1.78125 -13.40625 C 1.769531 -15.238281 2.503906 -16.6875 3.984375 -17.75 C 5.460938 -18.8125 7.425781 -19.34375 9.875 -19.34375 C 12.28125 -19.34375 14.175781 -18.832031 15.5625 -17.8125 C 16.957031 -16.789062 17.769531 -15.398438 18 -13.640625 Z M 18 -13.640625 "/>
      </g>
    </g>
  </g>
  <g fill="#000000" fill-opacity="1" transform="matrix(1.34469, 0, 0, 1.403112, -1.355394, 11.796289)">
    <g transform="translate(138.596978, 215.320942)">
      <g>
        <path d="M 2.21875 0 L 2.21875 -25.453125 L 7.59375 -25.453125 L 7.59375 -4.4375 L 18.5 -4.4375 L 18.5 0 Z M 2.21875 0 "/>
      </g>
    </g>
  </g>
  <g fill="#000000" fill-opacity="1" transform="matrix(1.34469, 0, 0, 1.403112, -1.355394, 11.796289)">
    <g transform="translate(158.45394, 215.320942)">
      <g>
        <path d="M 7.5625 0.359375 C 5.738281 0.359375 4.222656 -0.113281 3.015625 -1.0625 C 1.816406 -2.019531 1.21875 -3.441406 1.21875 -5.328125 C 1.21875 -6.753906 1.550781 -7.875 2.21875 -8.6875 C 2.894531 -9.5 3.773438 -10.09375 4.859375 -10.46875 C 5.953125 -10.84375 7.128906 -11.09375 8.390625 -11.21875 C 10.046875 -11.375 11.226562 -11.539062 11.9375 -11.71875 C 12.65625 -11.90625 13.015625 -12.304688 13.015625 -12.921875 L 13.015625 -13 C 13.015625 -13.789062 12.765625 -14.398438 12.265625 -14.828125 C 11.773438 -15.253906 11.078125 -15.46875 10.171875 -15.46875 C 9.222656 -15.46875 8.46875 -15.257812 7.90625 -14.84375 C 7.34375 -14.4375 6.96875 -13.914062 6.78125 -13.28125 L 1.890625 -13.671875 C 2.253906 -15.410156 3.160156 -16.789062 4.609375 -17.8125 C 6.054688 -18.832031 7.921875 -19.34375 10.203125 -19.34375 C 11.617188 -19.34375 12.941406 -19.117188 14.171875 -18.671875 C 15.410156 -18.222656 16.410156 -17.523438 17.171875 -16.578125 C 17.929688 -15.628906 18.3125 -14.394531 18.3125 -12.875 L 18.3125 0 L 13.28125 0 L 13.28125 -2.640625 L 13.140625 -2.640625 C 12.671875 -1.753906 11.972656 -1.03125 11.046875 -0.46875 C 10.128906 0.0820312 8.96875 0.359375 7.5625 0.359375 Z M 9.078125 -3.296875 C 10.234375 -3.296875 11.179688 -3.628906 11.921875 -4.296875 C 12.671875 -4.972656 13.046875 -5.816406 13.046875 -6.828125 L 13.046875 -8.84375 C 12.835938 -8.707031 12.515625 -8.582031 12.078125 -8.46875 C 11.648438 -8.363281 11.1875 -8.269531 10.6875 -8.1875 C 10.195312 -8.113281 9.757812 -8.046875 9.375 -7.984375 C 8.445312 -7.859375 7.695312 -7.597656 7.125 -7.203125 C 6.5625 -6.816406 6.28125 -6.25 6.28125 -5.5 C 6.28125 -4.769531 6.539062 -4.21875 7.0625 -3.84375 C 7.59375 -3.476562 8.265625 -3.296875 9.078125 -3.296875 Z M 9.078125 -3.296875 "/>
      </g>
    </g>
  </g>
  <g fill="#000000" fill-opacity="1" transform="matrix(1.34469, 0, 0, 1.403112, -1.355394, 11.796289)">
    <g transform="translate(178.758253, 215.320942)">
      <g>
        <path d="M 7.40625 -11.03125 L 7.40625 0 L 2.109375 0 L 2.109375 -19.09375 L 7.15625 -19.09375 L 7.15625 -15.71875 L 7.390625 -15.71875 C 7.816406 -16.832031 8.523438 -17.710938 9.515625 -18.359375 C 10.503906 -19.015625 11.707031 -19.34375 13.125 -19.34375 C 15.113281 -19.34375 16.707031 -18.703125 17.90625 -17.421875 C 19.113281 -16.140625 19.71875 -14.382812 19.71875 -12.15625 L 19.71875 0 L 14.421875 0 L 14.421875 -11.21875 C 14.429688 -12.382812 14.128906 -13.296875 13.515625 -13.953125 C 12.910156 -14.609375 12.082031 -14.9375 11.03125 -14.9375 C 9.957031 -14.9375 9.085938 -14.59375 8.421875 -13.90625 C 7.753906 -13.226562 7.414062 -12.269531 7.40625 -11.03125 Z M 7.40625 -11.03125 "/>
      </g>
    </g>
  </g>
  <g fill="#000000" fill-opacity="1" transform="matrix(1.34469, 0, 0, 1.403112, -1.355394, 11.796289)">
    <g transform="translate(200.516422, 215.320942)">
      <g>
        <path d="M 9.140625 0.3125 C 7.691406 0.3125 6.382812 -0.0625 5.21875 -0.8125 C 4.050781 -1.5625 3.125 -2.664062 2.4375 -4.125 C 1.75 -5.59375 1.40625 -7.390625 1.40625 -9.515625 C 1.40625 -11.703125 1.757812 -13.523438 2.46875 -14.984375 C 3.175781 -16.441406 4.113281 -17.53125 5.28125 -18.25 C 6.457031 -18.976562 7.742188 -19.34375 9.140625 -19.34375 C 10.203125 -19.34375 11.09375 -19.160156 11.8125 -18.796875 C 12.53125 -18.441406 13.109375 -18 13.546875 -17.46875 C 13.992188 -16.9375 14.332031 -16.410156 14.5625 -15.890625 L 14.734375 -15.890625 L 14.734375 -25.453125 L 20.015625 -25.453125 L 20.015625 0 L 14.796875 0 L 14.796875 -3.0625 L 14.5625 -3.0625 C 14.320312 -2.53125 13.972656 -2.003906 13.515625 -1.484375 C 13.066406 -0.960938 12.484375 -0.53125 11.765625 -0.1875 C 11.046875 0.144531 10.171875 0.3125 9.140625 0.3125 Z M 10.828125 -3.90625 C 12.097656 -3.90625 13.082031 -4.421875 13.78125 -5.453125 C 14.488281 -6.484375 14.84375 -7.847656 14.84375 -9.546875 C 14.84375 -11.253906 14.492188 -12.609375 13.796875 -13.609375 C 13.097656 -14.617188 12.109375 -15.125 10.828125 -15.125 C 9.515625 -15.125 8.515625 -14.609375 7.828125 -13.578125 C 7.148438 -12.546875 6.8125 -11.203125 6.8125 -9.546875 C 6.8125 -7.878906 7.15625 -6.519531 7.84375 -5.46875 C 8.53125 -4.425781 9.523438 -3.90625 10.828125 -3.90625 Z M 10.828125 -3.90625 "/>
      </g>
    </g>
  </g>
  <g fill="#000000" fill-opacity="1" transform="matrix(1.34469, 0, 0, 1.403112, -1.355394, 11.796289)">
    <g transform="translate(222.746798, 215.320942)">
      <g>
        <path d="M 18 -13.640625 L 13.15625 -13.34375 C 13.019531 -13.957031 12.679688 -14.484375 12.140625 -14.921875 C 11.597656 -15.367188 10.867188 -15.59375 9.953125 -15.59375 C 9.128906 -15.59375 8.429688 -15.414062 7.859375 -15.0625 C 7.296875 -14.71875 7.019531 -14.265625 7.03125 -13.703125 C 7.019531 -13.242188 7.195312 -12.851562 7.5625 -12.53125 C 7.9375 -12.21875 8.566406 -11.96875 9.453125 -11.78125 L 12.90625 -11.09375 C 16.582031 -10.332031 18.425781 -8.609375 18.4375 -5.921875 C 18.4375 -4.671875 18.066406 -3.570312 17.328125 -2.625 C 16.597656 -1.675781 15.59375 -0.9375 14.3125 -0.40625 C 13.039062 0.113281 11.582031 0.375 9.9375 0.375 C 7.40625 0.375 5.390625 -0.148438 3.890625 -1.203125 C 2.390625 -2.265625 1.515625 -3.707031 1.265625 -5.53125 L 6.46875 -5.796875 C 6.632812 -5.023438 7.019531 -4.4375 7.625 -4.03125 C 8.226562 -3.632812 9 -3.4375 9.9375 -3.4375 C 10.863281 -3.4375 11.609375 -3.617188 12.171875 -3.984375 C 12.742188 -4.347656 13.035156 -4.8125 13.046875 -5.375 C 13.023438 -6.320312 12.210938 -6.957031 10.609375 -7.28125 L 7.296875 -7.9375 C 3.597656 -8.675781 1.757812 -10.5 1.78125 -13.40625 C 1.769531 -15.238281 2.503906 -16.6875 3.984375 -17.75 C 5.460938 -18.8125 7.425781 -19.34375 9.875 -19.34375 C 12.28125 -19.34375 14.175781 -18.832031 15.5625 -17.8125 C 16.957031 -16.789062 17.769531 -15.398438 18 -13.640625 Z M 18 -13.640625 "/>
      </g>
    </g>
  </g>
  <g fill="#000000" fill-opacity="1" transform="matrix(1.34469, 0, 0, 1.403112, -1.355394, 11.796289)">
    <g transform="translate(242.404931, 215.320942)">
      <g>
        <path d="M 10.734375 0.375 C 8.785156 0.375 7.109375 -0.0390625 5.703125 -0.875 C 4.296875 -1.707031 3.21875 -2.863281 2.46875 -4.34375 C 1.71875 -5.832031 1.34375 -7.539062 1.34375 -9.46875 C 1.34375 -11.425781 1.71875 -13.144531 2.46875 -14.625 C 3.226562 -16.101562 4.304688 -17.257812 5.703125 -18.09375 C 7.109375 -18.925781 8.78125 -19.34375 10.71875 -19.34375 C 12.382812 -19.34375 13.84375 -19.039062 15.09375 -18.4375 C 16.351562 -17.832031 17.34375 -16.984375 18.0625 -15.890625 C 18.789062 -14.796875 19.191406 -13.507812 19.265625 -12.03125 L 14.265625 -12.03125 C 14.128906 -12.976562 13.757812 -13.742188 13.15625 -14.328125 C 12.550781 -14.921875 11.765625 -15.21875 10.796875 -15.21875 C 9.578125 -15.21875 8.59375 -14.722656 7.84375 -13.734375 C 7.09375 -12.742188 6.71875 -11.347656 6.71875 -9.546875 C 6.71875 -7.722656 7.085938 -6.3125 7.828125 -5.3125 C 8.578125 -4.3125 9.566406 -3.8125 10.796875 -3.8125 C 11.710938 -3.8125 12.476562 -4.085938 13.09375 -4.640625 C 13.71875 -5.191406 14.109375 -5.976562 14.265625 -7 L 19.265625 -7 C 19.179688 -5.539062 18.785156 -4.253906 18.078125 -3.140625 C 17.367188 -2.035156 16.390625 -1.171875 15.140625 -0.546875 C 13.898438 0.0664062 12.429688 0.375 10.734375 0.375 Z M 10.734375 0.375 "/>
      </g>
    </g>
  </g>
  <g fill="#000000" fill-opacity="1" transform="matrix(1.34469, 0, 0, 1.403112, -1.355394, 11.796289)">
    <g transform="translate(262.957764, 215.320942)">
      <g>
        <path d="M 7.5625 0.359375 C 5.738281 0.359375 4.222656 -0.113281 3.015625 -1.0625 C 1.816406 -2.019531 1.21875 -3.441406 1.21875 -5.328125 C 1.21875 -6.753906 1.550781 -7.875 2.21875 -8.6875 C 2.894531 -9.5 3.773438 -10.09375 4.859375 -10.46875 C 5.953125 -10.84375 7.128906 -11.09375 8.390625 -11.21875 C 10.046875 -11.375 11.226562 -11.539062 11.9375 -11.71875 C 12.65625 -11.90625 13.015625 -12.304688 13.015625 -12.921875 L 13.015625 -13 C 13.015625 -13.789062 12.765625 -14.398438 12.265625 -14.828125 C 11.773438 -15.253906 11.078125 -15.46875 10.171875 -15.46875 C 9.222656 -15.46875 8.46875 -15.257812 7.90625 -14.84375 C 7.34375 -14.4375 6.96875 -13.914062 6.78125 -13.28125 L 1.890625 -13.671875 C 2.253906 -15.410156 3.160156 -16.789062 4.609375 -17.8125 C 6.054688 -18.832031 7.921875 -19.34375 10.203125 -19.34375 C 11.617188 -19.34375 12.941406 -19.117188 14.171875 -18.671875 C 15.410156 -18.222656 16.410156 -17.523438 17.171875 -16.578125 C 17.929688 -15.628906 18.3125 -14.394531 18.3125 -12.875 L 18.3125 0 L 13.28125 0 L 13.28125 -2.640625 L 13.140625 -2.640625 C 12.671875 -1.753906 11.972656 -1.03125 11.046875 -0.46875 C 10.128906 0.0820312 8.96875 0.359375 7.5625 0.359375 Z M 9.078125 -3.296875 C 10.234375 -3.296875 11.179688 -3.628906 11.921875 -4.296875 C 12.671875 -4.972656 13.046875 -5.816406 13.046875 -6.828125 L 13.046875 -8.84375 C 12.835938 -8.707031 12.515625 -8.582031 12.078125 -8.46875 C 11.648438 -8.363281 11.1875 -8.269531 10.6875 -8.1875 C 10.195312 -8.113281 9.757812 -8.046875 9.375 -7.984375 C 8.445312 -7.859375 7.695312 -7.597656 7.125 -7.203125 C 6.5625 -6.816406 6.28125 -6.25 6.28125 -5.5 C 6.28125 -4.769531 6.539062 -4.21875 7.0625 -3.84375 C 7.59375 -3.476562 8.265625 -3.296875 9.078125 -3.296875 Z M 9.078125 -3.296875 "/>
      </g>
    </g>
  </g>
  <g fill="#000000" fill-opacity="1" transform="matrix(1.34469, 0, 0, 1.403112, -1.355394, 11.796289)">
    <g transform="translate(283.262076, 215.320942)">
      <g>
        <path d="M 2.109375 7.15625 L 2.109375 -19.09375 L 7.328125 -19.09375 L 7.328125 -15.890625 L 7.5625 -15.890625 C 7.8125 -16.410156 8.15625 -16.9375 8.59375 -17.46875 C 9.03125 -18 9.609375 -18.441406 10.328125 -18.796875 C 11.046875 -19.160156 11.9375 -19.34375 13 -19.34375 C 14.394531 -19.34375 15.675781 -18.976562 16.84375 -18.25 C 18.019531 -17.53125 18.960938 -16.441406 19.671875 -14.984375 C 20.378906 -13.523438 20.734375 -11.703125 20.734375 -9.515625 C 20.734375 -7.390625 20.390625 -5.59375 19.703125 -4.125 C 19.015625 -2.664062 18.082031 -1.5625 16.90625 -0.8125 C 15.738281 -0.0625 14.429688 0.3125 12.984375 0.3125 C 11.960938 0.3125 11.09375 0.144531 10.375 -0.1875 C 9.65625 -0.53125 9.066406 -0.960938 8.609375 -1.484375 C 8.160156 -2.003906 7.8125 -2.53125 7.5625 -3.0625 L 7.40625 -3.0625 L 7.40625 7.15625 Z M 7.296875 -9.546875 C 7.296875 -7.847656 7.644531 -6.484375 8.34375 -5.453125 C 9.039062 -4.421875 10.03125 -3.90625 11.3125 -3.90625 C 12.613281 -3.90625 13.609375 -4.425781 14.296875 -5.46875 C 14.984375 -6.519531 15.328125 -7.878906 15.328125 -9.546875 C 15.328125 -11.203125 14.984375 -12.546875 14.296875 -13.578125 C 13.617188 -14.609375 12.625 -15.125 11.3125 -15.125 C 10.03125 -15.125 9.039062 -14.617188 8.34375 -13.609375 C 7.644531 -12.609375 7.296875 -11.253906 7.296875 -9.546875 Z M 7.296875 -9.546875 "/>
      </g>
    </g>
  </g>
  <g fill="#000000" fill-opacity="1" transform="matrix(1.34469, 0, 0, 1.403112, -1.355394, 11.796289)">
    <g transform="translate(305.393026, 215.320942)">
      <g>
        <path d="M 2.109375 0 L 2.109375 -19.09375 L 7.40625 -19.09375 L 7.40625 0 Z M 4.765625 -21.546875 C 3.984375 -21.546875 3.3125 -21.804688 2.75 -22.328125 C 2.1875 -22.859375 1.90625 -23.492188 1.90625 -24.234375 C 1.90625 -24.972656 2.1875 -25.601562 2.75 -26.125 C 3.3125 -26.644531 3.984375 -26.90625 4.765625 -26.90625 C 5.554688 -26.90625 6.234375 -26.644531 6.796875 -26.125 C 7.359375 -25.601562 7.640625 -24.972656 7.640625 -24.234375 C 7.640625 -23.492188 7.359375 -22.859375 6.796875 -22.328125 C 6.234375 -21.804688 5.554688 -21.546875 4.765625 -21.546875 Z M 4.765625 -21.546875 "/>
      </g>
    </g>
  </g>
  <g fill="#000000" fill-opacity="1" transform="matrix(1.34469, 0, 0, 1.403112, -1.355394, 11.796289)">
    <g transform="translate(314.911442, 215.320942)">
      <g>
        <path d="M 7.40625 -11.03125 L 7.40625 0 L 2.109375 0 L 2.109375 -19.09375 L 7.15625 -19.09375 L 7.15625 -15.71875 L 7.390625 -15.71875 C 7.816406 -16.832031 8.523438 -17.710938 9.515625 -18.359375 C 10.503906 -19.015625 11.707031 -19.34375 13.125 -19.34375 C 15.113281 -19.34375 16.707031 -18.703125 17.90625 -17.421875 C 19.113281 -16.140625 19.71875 -14.382812 19.71875 -12.15625 L 19.71875 0 L 14.421875 0 L 14.421875 -11.21875 C 14.429688 -12.382812 14.128906 -13.296875 13.515625 -13.953125 C 12.910156 -14.609375 12.082031 -14.9375 11.03125 -14.9375 C 9.957031 -14.9375 9.085938 -14.59375 8.421875 -13.90625 C 7.753906 -13.226562 7.414062 -12.269531 7.40625 -11.03125 Z M 7.40625 -11.03125 "/>
      </g>
    </g>
  </g>
  <g fill="#000000" fill-opacity="1" transform="matrix(1.34469, 0, 0, 1.403112, -1.355394, 11.796289)">
    <g transform="translate(336.669612, 215.320942)">
      <g>
        <path d="M 10.71875 7.4375 C 8.144531 7.4375 6.125 6.929688 4.65625 5.921875 C 3.195312 4.910156 2.304688 3.679688 1.984375 2.234375 L 6.890625 1.578125 C 7.097656 2.085938 7.515625 2.554688 8.140625 2.984375 C 8.765625 3.410156 9.664062 3.625 10.84375 3.625 C 11.988281 3.625 12.9375 3.347656 13.6875 2.796875 C 14.4375 2.253906 14.8125 1.359375 14.8125 0.109375 L 14.8125 -3.375 L 14.59375 -3.375 C 14.238281 -2.59375 13.625 -1.878906 12.75 -1.234375 C 11.875 -0.597656 10.671875 -0.28125 9.140625 -0.28125 C 7.710938 -0.28125 6.410156 -0.613281 5.234375 -1.28125 C 4.066406 -1.945312 3.132812 -2.96875 2.4375 -4.34375 C 1.75 -5.71875 1.40625 -7.460938 1.40625 -9.578125 C 1.40625 -11.753906 1.757812 -13.5625 2.46875 -15 C 3.175781 -16.445312 4.113281 -17.53125 5.28125 -18.25 C 6.457031 -18.976562 7.742188 -19.34375 9.140625 -19.34375 C 10.203125 -19.34375 11.09375 -19.160156 11.8125 -18.796875 C 12.539062 -18.441406 13.128906 -18 13.578125 -17.46875 C 14.023438 -16.9375 14.363281 -16.410156 14.59375 -15.890625 L 14.796875 -15.890625 L 14.796875 -19.09375 L 20.046875 -19.09375 L 20.046875 0.1875 C 20.046875 1.769531 19.644531 3.097656 18.84375 4.171875 C 18.050781 5.253906 16.953125 6.066406 15.546875 6.609375 C 14.148438 7.160156 12.539062 7.4375 10.71875 7.4375 Z M 10.828125 -4.25 C 12.097656 -4.25 13.082031 -4.71875 13.78125 -5.65625 C 14.488281 -6.601562 14.84375 -7.921875 14.84375 -9.609375 C 14.84375 -11.285156 14.492188 -12.625 13.796875 -13.625 C 13.097656 -14.625 12.109375 -15.125 10.828125 -15.125 C 9.515625 -15.125 8.515625 -14.609375 7.828125 -13.578125 C 7.148438 -12.554688 6.8125 -11.234375 6.8125 -9.609375 C 6.8125 -7.960938 7.15625 -6.65625 7.84375 -5.6875 C 8.53125 -4.726562 9.523438 -4.25 10.828125 -4.25 Z M 10.828125 -4.25 "/>
      </g>
    </g>
  </g>
  <g transform="matrix(1.34469, 0, 0, 1.403112, 172.109634, 323.287109)">
    <g clip-path="url(#fa939490f4)">
      <g fill="#000000" fill-opacity="1">
        <g transform="translate(31.088465, 1.034209)">
          <g>
            <path d="M -9.34375 3.125 C -5.363281 5.414062 -1.375 7.367188 2.625 8.984375 C 6.632812 10.609375 11.171875 11.910156 16.234375 12.890625 C 21.304688 13.867188 26.957031 14.359375 33.1875 14.359375 C 39.414062 14.359375 45.070312 13.867188 50.15625 12.890625 C 55.25 11.910156 59.796875 10.617188 63.796875 9.015625 C 67.804688 7.410156 71.800781 5.445312 75.78125 3.125 L 76.828125 3.328125 L 76.828125 13.859375 C 73.273438 16.710938 69.519531 19.234375 65.5625 21.421875 C 61.601562 23.609375 56.914062 25.40625 51.5 26.8125 C 46.082031 28.21875 39.976562 28.921875 33.1875 28.921875 C 23.414062 28.921875 15.101562 27.535156 8.25 24.765625 C 1.394531 22.003906 -4.816406 18.367188 -10.390625 13.859375 L -10.390625 3.328125 Z M -9.34375 3.125 "/>
          </g>
        </g>
      </g>
    </g>
  </g>
  <g fill="#000000" fill-opacity="1" transform="matrix(1, 0, 0, 1, 41.832436, 52.762188)">
    <g transform="translate(130.482705, 215.320942)">
      <g/>
    </g>
  </g>
</svg>